<svg xmlns="http://www.w3.org/2000/svg"  height="500"  width="500">
	<group>
		<clip-path d="M15.08,24.61L366,24.61L366,278.85L15.08,278.85ZM15.08,24.61"/>
		<group>
			<clip-path d="M178.3,38.79C178.3,38.79 229.66,16.26 281.24,27.99C332.83,39.72 362.42,102.66 365.47,142.75C368.52,182.85 354.9,272.16 234.2,277.95C113.49,283.74 59.92,259.03 27.54,198.41C-4.83,137.8 34.55,61.43 70.28,43.01C105.98,24.61 178.3,38.79 178.3,38.79ZM178.3,38.79"/>
			<path fill="#e7f9ff" fill-rule="nonZero" d="M0.29,24.61L381.06,24.61L381.06,283.8L0.29,283.8ZM0.29,24.61"/>
		</group>
	</group>
	<group>
		<clip-path d="M15.08,179L366,179L366,278.85L15.08,278.85ZM15.08,179"/>
		<group>
			<clip-path d="M178.3,38.79C178.3,38.79 229.66,16.26 281.24,27.99C332.83,39.72 362.42,102.66 365.47,142.75C368.52,182.85 354.9,272.16 234.2,277.95C113.49,283.74 59.92,259.03 27.54,198.41C-4.83,137.8 34.55,61.43 70.28,43.01C105.98,24.61 178.3,38.79 178.3,38.79ZM178.3,38.79"/>
			<path fill="#cdedf7" fill-rule="nonZero" d="M381.06,283.8L0.29,283.8L0.29,179.42C0.29,252.66 381.06,252.66 381.06,179.42ZM381.06,283.8"/>
		</group>
	</group>
	<group>
		<clip-path d="M136,24.61L245,24.61L245,107L136,107ZM136,24.61"/>
		<group>
			<clip-path d="M178.3,38.79C178.3,38.79 229.66,16.26 281.24,27.99C332.83,39.72 362.42,102.66 365.47,142.75C368.52,182.85 354.9,272.16 234.2,277.95C113.49,283.74 59.92,259.03 27.54,198.41C-4.83,137.8 34.55,61.43 70.28,43.01C105.98,24.61 178.3,38.79 178.3,38.79ZM178.3,38.79"/>
			<path fill="#cdedf7" fill-rule="nonZero" d="M136.36,24.61L244.55,24.61L244.55,106.1L136.36,106.1ZM136.36,24.61"/>
		</group>
	</group>
	<group>
		<clip-path d="M132,24.61L249,24.61L249,110L132,110ZM132,24.61"/>
		<group>
			<clip-path d="M178.3,38.79C178.3,38.79 229.66,16.26 281.24,27.99C332.83,39.72 362.42,102.66 365.47,142.75C368.52,182.85 354.9,272.16 234.2,277.95C113.49,283.74 59.92,259.03 27.54,198.41C-4.83,137.8 34.55,61.43 70.28,43.01C105.98,24.61 178.3,38.79 178.3,38.79ZM178.3,38.79"/>
			<path fill="#9fd1ed" fill-rule="nonZero" d="M241.54,24.61L241.54,102.85L194.38,102.85L194.38,24.61L186.97,24.61L186.97,102.85L139.82,102.85L139.82,24.61L132.41,24.61L132.41,109.9L248.94,109.9L248.94,24.61ZM241.54,24.61"/>
		</group>
	</group>
	<group>
		<clip-path d="M283,102L359,102L359,110L283,110ZM283,102"/>
		<group>
			<clip-path d="M178.3,38.79C178.3,38.79 229.66,16.26 281.24,27.99C332.83,39.72 362.42,102.66 365.47,142.75C368.52,182.85 354.9,272.16 234.2,277.95C113.49,283.74 59.92,259.03 27.54,198.41C-4.83,137.8 34.55,61.43 70.28,43.01C105.98,24.61 178.3,38.79 178.3,38.79ZM178.3,38.79"/>
			<path fill="#cdedf7" fill-rule="nonZero" d="M283.63,102.3L358.91,102.3L358.91,109.9L283.63,109.9ZM283.63,102.3"/>
		</group>
	</group>
	<group>
		<clip-path d="M57,100L111,100L111,108L57,108ZM57,100"/>
		<group>
			<clip-path d="M178.3,38.79C178.3,38.79 229.66,16.26 281.24,27.99C332.83,39.72 362.42,102.66 365.47,142.75C368.52,182.85 354.9,272.16 234.2,277.95C113.49,283.74 59.92,259.03 27.54,198.41C-4.83,137.8 34.55,61.43 70.28,43.01C105.98,24.61 178.3,38.79 178.3,38.79ZM178.3,38.79"/>
			<path fill="#cdedf7" fill-rule="nonZero" d="M57.53,100.32L110.13,100.32L110.13,107.92L57.53,107.92ZM57.53,100.32"/>
		</group>
	</group>
	<group>
		<clip-path d="M293,64L320,64L320,88L293,88ZM293,64"/>
		<group>
			<clip-path d="M178.3,38.79C178.3,38.79 229.66,16.26 281.24,27.99C332.83,39.72 362.42,102.66 365.47,142.75C368.52,182.85 354.9,272.16 234.2,277.95C113.49,283.74 59.92,259.03 27.54,198.41C-4.83,137.8 34.55,61.43 70.28,43.01C105.98,24.61 178.3,38.79 178.3,38.79ZM178.3,38.79"/>
			<path fill="#f1e38f" fill-rule="nonZero" d="M297.66,87.24L315.95,87.24C315.95,87.24 320.46,82.89 318.91,78.3C316.89,72.29 311.38,76.76 311.38,76.76C311.38,76.76 315.5,68.38 308.6,65.31C301.69,62.23 297.66,69.36 299.14,75.09C299.14,75.09 295.77,72.85 293.89,76.76C292,80.67 297.66,87.24 297.66,87.24ZM297.66,87.24"/>
		</group>
	</group>
	<group>
		<clip-path d="M295,87L319,87L319,103L295,103ZM295,87"/>
		<group>
			<clip-path d="M178.3,38.79C178.3,38.79 229.66,16.26 281.24,27.99C332.83,39.72 362.42,102.66 365.47,142.75C368.52,182.85 354.9,272.16 234.2,277.95C113.49,283.74 59.92,259.03 27.54,198.41C-4.83,137.8 34.55,61.43 70.28,43.01C105.98,24.61 178.3,38.79 178.3,38.79ZM178.3,38.79"/>
			<path fill="#9fd1ed" fill-rule="nonZero" d="M318.36,87.24L295.29,87.24L299.97,102.3L313.68,102.3ZM318.36,87.24"/>
		</group>
	</group>
	<group>
		<clip-path d="M74,73L89,73L89,89L74,89ZM74,73"/>
		<group>
			<clip-path d="M178.3,38.79C178.3,38.79 229.66,16.26 281.24,27.99C332.83,39.72 362.42,102.66 365.47,142.75C368.52,182.85 354.9,272.16 234.2,277.95C113.49,283.74 59.92,259.03 27.54,198.41C-4.83,137.8 34.55,61.43 70.28,43.01C105.98,24.61 178.3,38.79 178.3,38.79ZM178.3,38.79"/>
			<path fill="#f1e38f" fill-rule="nonZero" d="M76.08,88.36C76.08,88.36 72.98,84.03 74.95,78.99C76.92,73.96 82.38,72.1 85.95,74.96C91.46,79.38 85.95,88.36 85.95,88.36ZM76.08,88.36"/>
		</group>
	</group>
	<group>
		<clip-path d="M79,80L85,80L85,89L79,89ZM79,80"/>
		<group>
			<clip-path d="M178.3,38.79C178.3,38.79 229.66,16.26 281.24,27.99C332.83,39.72 362.42,102.66 365.47,142.75C368.52,182.85 354.9,272.16 234.2,277.95C113.49,283.74 59.92,259.03 27.54,198.41C-4.83,137.8 34.55,61.43 70.28,43.01C105.98,24.61 178.3,38.79 178.3,38.79ZM178.3,38.79"/>
			<path fill="#00000000" d="M80.34,88.36C80.34,88.36 80.88,83.09 83.83,80.99" stroke="#231f20" strokeLineCap="round" strokeLineJoin="round" stroke-width="0.74"/>
		</group>
	</group>
	<group>
		<clip-path d="M59,72L77,72L77,89L59,89ZM59,72"/>
		<group>
			<clip-path d="M178.3,38.79C178.3,38.79 229.66,16.26 281.24,27.99C332.83,39.72 362.42,102.66 365.47,142.75C368.52,182.85 354.9,272.16 234.2,277.95C113.49,283.74 59.92,259.03 27.54,198.41C-4.83,137.8 34.55,61.43 70.28,43.01C105.98,24.61 178.3,38.79 178.3,38.79ZM178.3,38.79"/>
			<path fill="#f1e38f" fill-rule="nonZero" d="M76.08,88.36C76.08,88.36 78.84,79.97 70.4,74.13C61.96,68.28 59.62,76.08 59.87,80.17C60.12,84.26 64.3,88.36 64.3,88.36ZM76.08,88.36"/>
		</group>
	</group>
	<group>
		<clip-path d="M65,79L71,79L71,89L65,89ZM65,79"/>
		<group>
			<clip-path d="M178.3,38.79C178.3,38.79 229.66,16.26 281.24,27.99C332.83,39.72 362.42,102.66 365.47,142.75C368.52,182.85 354.9,272.16 234.2,277.95C113.49,283.74 59.92,259.03 27.54,198.41C-4.83,137.8 34.55,61.43 70.28,43.01C105.98,24.61 178.3,38.79 178.3,38.79ZM178.3,38.79"/>
			<path fill="#00000000" d="M70.4,88.36C70.4,88.36 70.32,82.81 65.89,79.8" stroke="#231f20" strokeLineCap="round" strokeLineJoin="round" stroke-width="0.74"/>
		</group>
	</group>
	<group>
		<clip-path d="M63,88L88,88L88,101L63,101ZM63,88"/>
		<group>
			<clip-path d="M178.3,38.79C178.3,38.79 229.66,16.26 281.24,27.99C332.83,39.72 362.42,102.66 365.47,142.75C368.52,182.85 354.9,272.16 234.2,277.95C113.49,283.74 59.92,259.03 27.54,198.41C-4.83,137.8 34.55,61.43 70.28,43.01C105.98,24.61 178.3,38.79 178.3,38.79ZM178.3,38.79"/>
			<path fill="#9fd1ed" fill-rule="nonZero" d="M87.24,88.36L63.42,88.36L66.05,100.32L84.61,100.32ZM87.24,88.36"/>
		</group>
	</group>
	<group>
		<clip-path d="M91,82L103,82L103,94L91,94ZM91,82"/>
		<group>
			<clip-path d="M178.3,38.79C178.3,38.79 229.66,16.26 281.24,27.99C332.83,39.72 362.42,102.66 365.47,142.75C368.52,182.85 354.9,272.16 234.2,277.95C113.49,283.74 59.92,259.03 27.54,198.41C-4.83,137.8 34.55,61.43 70.28,43.01C105.98,24.61 178.3,38.79 178.3,38.79ZM178.3,38.79"/>
			<path fill="#f1e38f" fill-rule="nonZero" d="M102.77,88.36C102.77,88.71 102.73,89.07 102.67,89.41C102.6,89.76 102.5,90.1 102.36,90.43C102.22,90.75 102.06,91.07 101.86,91.36C101.66,91.66 101.44,91.93 101.19,92.18C100.94,92.43 100.66,92.65 100.37,92.85C100.07,93.05 99.76,93.21 99.43,93.35C99.11,93.48 98.77,93.59 98.42,93.66C98.07,93.73 97.72,93.76 97.37,93.76C97.01,93.76 96.66,93.73 96.31,93.66C95.96,93.59 95.63,93.48 95.3,93.35C94.97,93.21 94.66,93.05 94.37,92.85C94.07,92.65 93.8,92.43 93.55,92.18C93.3,91.93 93.07,91.66 92.88,91.36C92.68,91.07 92.51,90.75 92.38,90.43C92.24,90.1 92.14,89.76 92.07,89.41C92,89.07 91.96,88.71 91.96,88.36C91.96,88.01 92,87.66 92.07,87.31C92.14,86.96 92.24,86.62 92.38,86.29C92.51,85.97 92.68,85.66 92.88,85.36C93.07,85.07 93.3,84.79 93.55,84.54C93.8,84.29 94.07,84.07 94.37,83.87C94.66,83.68 94.97,83.51 95.3,83.37C95.63,83.24 95.96,83.13 96.31,83.07C96.66,83 97.01,82.96 97.37,82.96C97.72,82.96 98.07,83 98.42,83.07C98.77,83.13 99.11,83.24 99.43,83.37C99.76,83.51 100.07,83.68 100.37,83.87C100.66,84.07 100.94,84.29 101.19,84.54C101.44,84.79 101.66,85.07 101.86,85.36C102.06,85.66 102.22,85.97 102.36,86.29C102.5,86.62 102.6,86.96 102.67,87.31C102.73,87.66 102.77,88.01 102.77,88.36ZM102.77,88.36"/>
		</group>
	</group>
	<group>
		<clip-path d="M92,93L102,93L102,101L92,101ZM92,93"/>
		<group>
			<clip-path d="M178.3,38.79C178.3,38.79 229.66,16.26 281.24,27.99C332.83,39.72 362.42,102.66 365.47,142.75C368.52,182.85 354.9,272.16 234.2,277.95C113.49,283.74 59.92,259.03 27.54,198.41C-4.83,137.8 34.55,61.43 70.28,43.01C105.98,24.61 178.3,38.79 178.3,38.79ZM178.3,38.79"/>
			<path fill="#9fd1ed" fill-rule="nonZero" d="M101.88,93.08L92.86,93.08L93.86,100.32L100.88,100.32ZM101.88,93.08"/>
		</group>
	</group>
	<group>
		<clip-path d="M25,190L105,190L105,278.85L25,278.85ZM25,190"/>
		<group>
			<clip-path d="M178.3,38.79C178.3,38.79 229.66,16.26 281.24,27.99C332.83,39.72 362.42,102.66 365.47,142.75C368.52,182.85 354.9,272.16 234.2,277.95C113.49,283.74 59.92,259.03 27.54,198.41C-4.83,137.8 34.55,61.43 70.28,43.01C105.98,24.61 178.3,38.79 178.3,38.79ZM178.3,38.79"/>
			<path fill="#9fd1ed" fill-rule="nonZero" d="M25.78,190.69L104.5,190.69L104.5,283.8L25.78,283.8ZM25.78,190.69"/>
		</group>
	</group>
	<group>
		<clip-path d="M32,201L98,201L98,225L32,225ZM32,201"/>
		<group>
			<clip-path d="M178.3,38.79C178.3,38.79 229.66,16.26 281.24,27.99C332.83,39.72 362.42,102.66 365.47,142.75C368.52,182.85 354.9,272.16 234.2,277.95C113.49,283.74 59.92,259.03 27.54,198.41C-4.83,137.8 34.55,61.43 70.28,43.01C105.98,24.61 178.3,38.79 178.3,38.79ZM178.3,38.79"/>
			<path fill="#cdedf7" fill-rule="nonZero" d="M32.55,201.3L97.73,201.3L97.73,224.43L32.55,224.43ZM32.55,201.3"/>
		</group>
	</group>
	<group>
		<clip-path d="M32,234L98,234L98,258L32,258ZM32,234"/>
		<group>
			<clip-path d="M178.3,38.79C178.3,38.79 229.66,16.26 281.24,27.99C332.83,39.72 362.42,102.66 365.47,142.75C368.52,182.85 354.9,272.16 234.2,277.95C113.49,283.74 59.92,259.03 27.54,198.41C-4.83,137.8 34.55,61.43 70.28,43.01C105.98,24.61 178.3,38.79 178.3,38.79ZM178.3,38.79"/>
			<path fill="#cdedf7" fill-rule="nonZero" d="M32.55,234.35L97.73,234.35L97.73,257.48L32.55,257.48ZM32.55,234.35"/>
		</group>
	</group>
	<group>
		<clip-path d="M297,190L366,190L366,278.85L297,278.85ZM297,190"/>
		<group>
			<clip-path d="M178.3,38.79C178.3,38.79 229.66,16.26 281.24,27.99C332.83,39.72 362.42,102.66 365.47,142.75C368.52,182.85 354.9,272.16 234.2,277.95C113.49,283.74 59.92,259.03 27.54,198.41C-4.83,137.8 34.55,61.43 70.28,43.01C105.98,24.61 178.3,38.79 178.3,38.79ZM178.3,38.79"/>
			<path fill="#9fd1ed" fill-rule="nonZero" d="M297.71,190.69L376.43,190.69L376.43,283.8L297.71,283.8ZM297.71,190.69"/>
		</group>
	</group>
	<group>
		<clip-path d="M304,201L366,201L366,225L304,225ZM304,201"/>
		<group>
			<clip-path d="M178.3,38.79C178.3,38.79 229.66,16.26 281.24,27.99C332.83,39.72 362.42,102.66 365.47,142.75C368.52,182.85 354.9,272.16 234.2,277.95C113.49,283.74 59.92,259.03 27.54,198.41C-4.83,137.8 34.55,61.43 70.28,43.01C105.98,24.61 178.3,38.79 178.3,38.79ZM178.3,38.79"/>
			<path fill="#cdedf7" fill-rule="nonZero" d="M304.48,201.3L369.66,201.3L369.66,224.43L304.48,224.43ZM304.48,201.3"/>
		</group>
	</group>
	<group>
		<clip-path d="M304,234L366,234L366,258L304,258ZM304,234"/>
		<group>
			<clip-path d="M178.3,38.79C178.3,38.79 229.66,16.26 281.24,27.99C332.83,39.72 362.42,102.66 365.47,142.75C368.52,182.85 354.9,272.16 234.2,277.95C113.49,283.74 59.92,259.03 27.54,198.41C-4.83,137.8 34.55,61.43 70.28,43.01C105.98,24.61 178.3,38.79 178.3,38.79ZM178.3,38.79"/>
			<path fill="#cdedf7" fill-rule="nonZero" d="M304.48,234.35L369.66,234.35L369.66,257.48L304.48,257.48ZM304.48,234.35"/>
		</group>
	</group>
	<group>
		<clip-path d="M11,304L375,304L375,350.11L11,350.11ZM11,304"/>
		<path fill="#f1e38f" fill-rule="nonZero" d="M374.67,350.11L11.38,350.11L50.6,304.69L335.45,304.69ZM374.67,350.11"/>
	</group>
	<path fill="#302b2d" fill-rule="nonZero" d="M173.85,95.39C173.85,95.39 171.51,89.31 163.79,92.58C156.07,95.86 157.94,107.66 160.05,113.04C162.15,118.41 155.37,120.34 152.44,126.54C149.52,132.73 150.34,147.64 161.34,148.22C172.33,148.81 187.43,139.81 187.43,139.81ZM173.85,95.39"/>
	<path fill="#037054" fill-rule="nonZero" d="M176.89,93.34C176.89,93.34 173.84,90.59 170.21,92.71C166.57,94.85 166.2,100.11 169.21,102.49C172.21,104.87 176.89,93.34 176.89,93.34ZM176.89,93.34"/>
	<path fill="#302b2d" fill-rule="nonZero" d="M175.61,126.17C175.61,126.17 165.78,129.95 168.12,119.41C168.12,119.41 162.58,114.87 165.08,105.29C167.57,95.7 182.43,83.23 196.14,89.54C196.14,89.54 200.23,85.26 204.8,86.5C209.38,87.75 208.49,94.22 208.49,94.22C208.49,94.22 213.83,95.56 214.45,106.14C215.07,116.72 211.25,115.65 213.75,120.64C215.13,123.39 209.45,126.09 206.65,124.77C203.84,123.44 175.61,126.17 175.61,126.17ZM175.61,126.17"/>
	<path fill="#ffa3a2" fill-rule="nonZero" d="M174.59,211.33C175.33,203.57 172.52,189.79 172.52,189.79L216.79,189.79C216.79,189.79 215.86,204.07 216.79,210.08C205.08,215.56 191.1,216.17 174.59,211.33ZM174.59,211.33"/>
	<path fill="#302b2d" fill-rule="nonZero" d="M200.42,207.91C200.42,208.18 200.39,208.45 200.33,208.71C200.27,208.96 200.19,209.19 200.08,209.38C199.97,209.58 199.84,209.73 199.7,209.84C199.55,209.94 199.41,210 199.25,210C199.09,210 198.95,209.94 198.8,209.84C198.66,209.73 198.53,209.58 198.42,209.38C198.31,209.19 198.23,208.96 198.17,208.71C198.11,208.45 198.08,208.18 198.08,207.91C198.08,207.63 198.11,207.36 198.17,207.11C198.23,206.85 198.31,206.63 198.42,206.43C198.53,206.23 198.66,206.09 198.8,205.98C198.95,205.88 199.09,205.82 199.25,205.82C199.41,205.82 199.55,205.88 199.7,205.98C199.84,206.09 199.97,206.23 200.08,206.43C200.19,206.63 200.27,206.85 200.33,207.11C200.39,207.36 200.42,207.63 200.42,207.91ZM200.42,207.91"/>
	<path fill="#ffa3a2" fill-rule="nonZero" d="M88.47,161.73C116.05,169 138.24,165.61 138.24,165.61L147.14,165.61L147.14,150.08L137.36,150.96C137.36,150.96 108.66,148.2 88.47,152.84L82.83,150.58C82.83,150.58 69.92,154.34 57.13,154.72C57.13,154.72 57.01,159.6 64.4,159.23C71.8,158.85 71.93,159.98 71.93,159.98C71.93,159.98 70.19,164.82 75.81,163.48C80.57,162.36 81.07,163.11 84.09,163.48C87.09,163.86 88.47,161.73 88.47,161.73ZM88.47,161.73"/>
	<path fill="#00000000" d="M71.93,159.98L79.07,158.24" stroke="#302b2d" strokeLineCap="round" strokeLineJoin="round" stroke-width="0.74"/>
	<path fill="#00000000" d="M139.75,155.09L136.36,159.98" stroke="#302b2d" strokeLineCap="round" strokeLineJoin="round" stroke-width="0.74"/>
	<path fill="#ffa3a2" fill-rule="nonZero" d="M298.41,161.73C270.83,169 248.64,165.61 248.64,165.61L239.74,165.61L239.74,150.08L249.52,150.96C249.52,150.96 278.23,148.2 298.41,152.84L304.05,150.58C304.05,150.58 316.96,154.34 329.75,154.72C329.75,154.72 329.88,159.6 322.48,159.23C315.08,158.85 314.96,159.98 314.96,159.98C314.96,159.98 316.7,164.82 311.07,163.48C306.31,162.36 305.81,163.11 302.8,163.48C299.79,163.86 298.41,161.73 298.41,161.73ZM298.41,161.73"/>
	<path fill="#00000000" d="M314.96,159.98L307.81,158.24" stroke="#302b2d" strokeLineCap="round" strokeLineJoin="round" stroke-width="0.74"/>
	<path fill="#00000000" d="M247.14,155.09L250.52,159.98" stroke="#302b2d" strokeLineCap="round" strokeLineJoin="round" stroke-width="0.74"/>
	<path fill="#f2e1d5" fill-rule="nonZero" d="M180.99,139.44L144.93,149L144.93,167.41L165.82,167.41L170,176.76L170.83,192.96L218.47,192.96L218.47,181.27C218.47,181.27 224.99,174.93 222.15,167.41L241.2,167.41L241.2,147.7L201.3,139.44ZM180.99,139.44"/>
	<path fill="#66b3f2" fill-rule="nonZero" d="M144.93,149L177.68,140.32C180.98,150.29 179.77,161.35 165.82,167.41L144.93,167.41ZM144.93,149"/>
	<path fill="#66b3f2" fill-rule="nonZero" d="M241.21,147.71L241.21,167.41L222.57,167.41C221.36,164.41 219.5,162.03 216.79,160.48C216.23,154.05 212.76,145.28 204,140ZM241.21,147.71"/>
	<path fill="#00000000" d="M163.82,156.89L169.33,164.07" stroke="#302b2d" strokeLineCap="round" strokeLineJoin="round" stroke-width="0.74"/>
	<path fill="#00000000" d="M222.15,167.41C222.15,167.41 220.96,162.57 216.79,160.48L220.81,154.05" stroke="#302b2d" strokeLineCap="round" strokeLineJoin="round" stroke-width="0.74"/>
	<path fill="#ffa3a2" fill-rule="nonZero" d="M180.99,125.49L180.99,139.44C180.99,139.44 183.5,146.82 189.39,148.58C195.28,150.33 202.18,146.32 202.93,142.07L202.93,130.17ZM180.99,125.49"/>
	<path fill="#302b2d" fill-rule="nonZero" d="M202.93,130.17L202.93,139.5C199.91,141.11 196.02,142.12 191.96,140.32C187.54,138.34 183.7,133.76 180.99,129.71L180.99,125.49ZM202.93,130.17"/>
	<path fill="#ffa3a2" fill-rule="nonZero" d="M208.13,100.53C208.13,100.53 202.44,109.02 192.07,103.26C193.7,105.44 188.95,117.44 181.77,116.35C181.77,116.35 182.32,118.69 180.68,120.25C179.04,121.8 179.74,118.3 176.46,118.38C173.19,118.45 171.47,125.31 175.77,127.5C180.05,129.68 181.61,128.27 181.61,128.27C181.61,128.27 183.33,133.18 191.13,136.07C198.93,138.95 209.3,134.27 209.93,126.25C210.55,118.22 208.13,100.53 208.13,100.53ZM208.13,100.53"/>
	<path fill="#00000000" d="M175.14,124.34C175.14,124.34 174.95,122.2 176.66,121.11C178.38,120.01 180.17,126.79 180.17,126.79" stroke="#302b2d" strokeLineCap="round" strokeLineJoin="round" stroke-width="0.74"/>
	<path fill="#00000000" d="M177.65,122.55L176.89,124.77L178.45,125.27" stroke="#302b2d" strokeLineCap="round" strokeLineJoin="round" stroke-width="0.74"/>
	<path fill="#00000000" d="M208.21,109.77C208.21,109.77 203.8,108.64 203.41,113.43C203.02,118.22 205.42,120.98 205.42,120.98L202.63,123.17" stroke="#302b2d" strokeLineCap="round" strokeLineJoin="round" stroke-width="0.74"/>
	<path fill="#00000000" d="M196.61,110.82C196.61,110.82 193.1,107.43 189.59,111.17" stroke="#302b2d" strokeLineCap="round" strokeLineJoin="round" stroke-width="0.74"/>
	<path fill="#302b2d" fill-rule="nonZero" d="M196.13,117.11C196.13,117.41 196.09,117.71 196.01,117.99C195.93,118.27 195.82,118.52 195.68,118.73C195.54,118.95 195.37,119.12 195.18,119.23C195,119.35 194.8,119.41 194.6,119.41C194.4,119.41 194.2,119.35 194.02,119.23C193.83,119.12 193.66,118.95 193.52,118.73C193.38,118.52 193.27,118.27 193.19,117.99C193.11,117.71 193.07,117.41 193.07,117.11C193.07,116.8 193.11,116.51 193.19,116.23C193.27,115.95 193.38,115.7 193.52,115.48C193.66,115.27 193.83,115.1 194.02,114.99C194.2,114.87 194.4,114.81 194.6,114.81C194.8,114.81 195,114.87 195.18,114.99C195.37,115.1 195.54,115.27 195.68,115.48C195.82,115.7 195.93,115.95 196.01,116.23C196.09,116.51 196.13,116.8 196.13,117.11ZM196.13,117.11"/>
	<path fill="#302b2d" fill-rule="nonZero" d="M208.47,117.11C208.47,117.41 208.43,117.71 208.36,117.99C208.28,118.27 208.17,118.52 208.03,118.73C207.88,118.95 207.72,119.12 207.53,119.23C207.34,119.35 207.15,119.41 206.95,119.41C206.75,119.41 206.55,119.35 206.36,119.23C206.18,119.12 206.01,118.95 205.87,118.73C205.73,118.52 205.62,118.27 205.54,117.99C205.46,117.71 205.42,117.41 205.42,117.11C205.42,116.8 205.46,116.51 205.54,116.23C205.62,115.95 205.73,115.7 205.87,115.48C206.01,115.27 206.18,115.1 206.36,114.99C206.55,114.87 206.75,114.81 206.95,114.81C207.15,114.81 207.34,114.87 207.53,114.99C207.72,115.1 207.88,115.27 208.03,115.48C208.17,115.7 208.28,115.95 208.36,116.23C208.43,116.51 208.47,116.8 208.47,117.11ZM208.47,117.11"/>
	<path fill="#00000000" d="M192.46,126.79C192.46,126.79 196.49,131.45 200.06,126.54" stroke="#302b2d" strokeLineCap="round" strokeLineJoin="round" stroke-width="0.74"/>
	<path fill="#ffa3a2" fill-rule="nonZero" d="M288,333.83C283.41,336.25 274.63,334.41 268.79,333.58C262.93,332.74 257.92,335.25 255.08,335.25C252.23,335.25 251.17,331.07 251.5,327.4C251.84,323.73 254.24,319.21 254.24,319.21L254.24,310.36L271.46,310.36L271.79,317.88C271.79,317.88 283.47,326.46 288.17,328.23C293,330.05 296.01,330.64 296.86,330.74C297.04,336.42 288.68,335.52 288,333.83ZM288,333.83"/>
	<path fill="#ffa3a2" fill-rule="nonZero" d="M77.73,304.69L67.2,314.29C67.2,314.29 51.07,326.73 46.23,329.15C41.38,331.57 40.21,333.08 40.13,335.25L63.02,335.25C64.79,335.25 66.48,334.48 67.61,333.11C69.25,331.11 72,328.38 74.98,328.07C79.74,327.57 84.17,326.23 84.5,323.81C84.84,321.39 83.83,317.21 83.83,317.21L87.18,313.7ZM77.73,304.69"/>
	<path fill="#00000000" d="M55.5,335.25C55.5,335.25 55.84,332.83 59.52,331.49" stroke="#302b2d" strokeLineCap="round" strokeLineJoin="round" stroke-width="0.74"/>
	<path fill="#00000000" d="M50.74,335.25C50.74,335.25 51.16,333.41 54.08,332.16" stroke="#302b2d" strokeLineCap="round" strokeLineJoin="round" stroke-width="0.74"/>
	<path fill="#00000000" d="M45.81,335.25C45.81,335.25 45.72,333.58 49.23,332.16" stroke="#302b2d" strokeLineCap="round" strokeLineJoin="round" stroke-width="0.74"/>
	<path fill="#00000000" d="M42.46,335.25C42.46,335.25 43.21,333.33 45.05,332.16" stroke="#302b2d" strokeLineCap="round" strokeLineJoin="round" stroke-width="0.74"/>
	<path fill="#66b3f2" fill-rule="nonZero" d="M124.18,260.8C154.51,228.49 164.93,229.62 164.93,229.62C163.34,219.85 172.52,213.09 172.52,213.09L173.85,206.57C188.14,209.29 202.69,209.2 217.45,206.57L219.47,213.09C219.47,213.09 224.99,218.6 225.74,225.36C225.74,225.36 264.86,238.14 270.12,255.17C275.39,272.2 272.13,312.79 272.13,312.79L253.32,312.79L253.32,299.76C253.32,299.76 247.05,283.48 248.31,269.2C248.31,269.2 221.91,261.93 205.36,251.91C205.36,251.91 182.27,270.5 136.64,282.27C136.64,282.27 116.93,303.02 92.86,310.28L86.84,315.04L76.56,304.77C90.66,287.96 112.26,266.55 124.18,260.8ZM124.18,260.8"/>
	<path fill="#302b2d" fill-rule="nonZero" d="M299.96,292.29L317.64,292.29L317.64,296.11L299.96,296.11ZM299.96,292.29"/>
	<path fill="#037054" fill-rule="nonZero" d="M291.76,282.98L296.17,282.98C296.46,282.98 296.75,283 297.04,283.06C297.33,283.12 297.61,283.2 297.88,283.32C298.14,283.43 298.4,283.56 298.64,283.73C298.89,283.89 299.11,284.07 299.32,284.28C299.53,284.48 299.71,284.71 299.87,284.95C300.04,285.2 300.17,285.45 300.28,285.72C300.39,285.99 300.48,286.27 300.54,286.55C300.59,286.84 300.62,287.13 300.62,287.42L300.62,300.24C300.62,300.54 300.59,300.82 300.54,301.11C300.48,301.39 300.39,301.67 300.28,301.94C300.17,302.21 300.04,302.47 299.87,302.71C299.71,302.95 299.53,303.18 299.32,303.39C299.11,303.59 298.89,303.78 298.64,303.94C298.4,304.1 298.14,304.24 297.88,304.35C297.61,304.46 297.33,304.54 297.04,304.6C296.75,304.66 296.46,304.69 296.17,304.69L291.76,304.69C291.46,304.69 291.18,304.66 290.89,304.6C290.6,304.54 290.32,304.46 290.05,304.35C289.79,304.24 289.53,304.1 289.29,303.94C289.04,303.78 288.82,303.59 288.61,303.39C288.41,303.18 288.22,302.95 288.06,302.71C287.89,302.47 287.76,302.21 287.65,301.94C287.54,301.67 287.45,301.39 287.39,301.11C287.34,300.82 287.31,300.54 287.31,300.24L287.31,287.42C287.31,287.13 287.34,286.84 287.39,286.55C287.45,286.27 287.54,285.99 287.65,285.72C287.76,285.45 287.89,285.2 288.06,284.95C288.22,284.71 288.41,284.48 288.61,284.28C288.82,284.07 289.04,283.89 289.29,283.73C289.53,283.56 289.79,283.43 290.05,283.32C290.32,283.2 290.6,283.12 290.89,283.06C291.18,283 291.46,282.98 291.76,282.98ZM291.76,282.98"/>
	<path fill="#037054" fill-rule="nonZero" d="M321.44,282.98L325.85,282.98C326.14,282.98 326.43,283 326.72,283.06C327.01,283.12 327.29,283.2 327.55,283.32C327.82,283.43 328.08,283.56 328.32,283.73C328.57,283.89 328.79,284.07 329,284.28C329.21,284.48 329.39,284.71 329.55,284.95C329.71,285.2 329.85,285.45 329.96,285.72C330.07,285.99 330.16,286.27 330.21,286.55C330.27,286.84 330.3,287.13 330.3,287.42L330.3,300.24C330.3,300.54 330.27,300.82 330.21,301.11C330.16,301.39 330.07,301.67 329.96,301.94C329.85,302.21 329.71,302.47 329.55,302.71C329.39,302.95 329.21,303.18 329,303.39C328.79,303.59 328.57,303.78 328.32,303.94C328.08,304.1 327.82,304.24 327.55,304.35C327.29,304.46 327.01,304.54 326.72,304.6C326.43,304.66 326.14,304.69 325.85,304.69L321.44,304.69C321.14,304.69 320.86,304.66 320.57,304.6C320.28,304.54 320,304.46 319.73,304.35C319.46,304.24 319.21,304.1 318.96,303.94C318.72,303.78 318.5,303.59 318.29,303.39C318.09,303.18 317.9,302.95 317.74,302.71C317.57,302.47 317.44,302.21 317.33,301.94C317.21,301.67 317.13,301.39 317.07,301.11C317.02,300.82 316.99,300.54 316.99,300.24L316.99,287.42C316.99,287.13 317.02,286.84 317.07,286.55C317.13,286.27 317.21,285.99 317.33,285.72C317.44,285.45 317.57,285.2 317.74,284.95C317.9,284.71 318.09,284.48 318.29,284.28C318.5,284.07 318.72,283.89 318.96,283.73C319.21,283.56 319.46,283.43 319.73,283.32C320,283.2 320.28,283.12 320.57,283.06C320.86,283 321.14,282.98 321.44,282.98ZM321.44,282.98"/>
	<group>
		<clip-path d="M164.24,335.35L168.54,335.35L168.54,339L164.24,339ZM164.24,335.35"/>
		<group>
			<clip-path d="M168.52,336.68C166.65,339.68 164.85,339.15 164.48,338.48C164.02,337.88 164.4,336 165,335.55C165.6,335.1 168,335.7 168,335.7"/>
			<path fill="#f1e38f" fill-rule="nonZero" d="M161.48,332.55L171.61,332.55L171.61,342.38L161.48,342.38ZM161.48,332.55"/>
		</group>
	</group>
	<group>
		<clip-path d="M176.95,334.68L181.21,334.68L181.21,338.32L176.95,338.32ZM176.95,334.68"/>
		<group>
			<clip-path d="M181.2,335.93C179.32,339 177.52,338.4 177.15,337.8C176.77,337.13 177.07,335.32 177.68,334.88C178.27,334.43 180.68,335.02 180.68,335.02"/>
			<path fill="#f1e38f" fill-rule="nonZero" d="M174.15,331.88L184.28,331.88L184.28,341.7L174.15,341.7ZM174.15,331.88"/>
		</group>
	</group>
</svg>
