<svg xmlns="http://www.w3.org/2000/svg" height="500"  width="500">
	<path fill="#de7760" fill-rule="nonZero" d="M147.38,279.19C147.16,288.16 144.84,312.44 143.67,324.62C143.23,328.92 122.84,331.98 121.46,324.25C120.37,318.13 118.98,311.05 117.31,305.44C117.16,307.41 117.02,309.01 116.94,310.03C116.65,312.95 116.21,318.86 115.78,324.76C115.12,333.29 93.93,332.64 92.84,326.44C89.2,306.75 83.52,276.57 86.28,264.39C86.21,263.44 85.7,261.69 85.04,260.01C84.1,257.39 107.04,257.75 107.04,257.75L117.89,251.7L106.31,243.1L106.75,235.95L127.21,242.52C127.21,242.52 148.4,251.34 148.33,254.33C148.11,260.3 147.6,270.95 147.38,279.19ZM147.38,279.19"/>
	<path fill="#a44c3d" fill-rule="nonZero" d="M127.14,242.37L148.18,249.08C148.33,249.22 148.33,251.19 148.26,254.11C123.28,263.22 93.13,260.67 85.04,259.87C84.1,257.24 82.93,254.62 82.93,254.62L105.73,251.77L106.31,242.95C112.72,242.59 120.07,242.3 127.14,242.37ZM127.14,242.37"/>
	<path fill="#260e0d" fill-rule="nonZero" d="M229.02,237.55C232.16,238.8 226.84,247.4 226.84,247.4C226.84,247.4 221.74,243.75 221.81,241.64C221.81,241.71 225.89,236.32 229.02,237.55ZM283.86,198.47C283.5,200.81 294.93,204.45 294.93,204.45C294.93,204.45 300.03,201.46 299.23,199.5C299.16,199.42 284.23,196.07 283.86,198.47ZM154.74,177.55C155.47,180.1 151.83,182.94 151.83,182.94L148.33,177.55ZM300.76,239.45C300.61,241.64 292.45,244.19 292.45,244.19C292.45,244.19 281.09,238.65 288.67,234.86C296.32,231.21 300.76,239.45 300.76,239.45ZM300.76,239.45"/>
	<path fill="#f4a898" fill-rule="nonZero" d="M294.06,242.44C293.62,248.93 292.45,258.41 291.87,265.34C291.58,268.98 284.81,276.79 284.95,278.17C285.39,281.89 294.35,280.5 295.95,285.32C296.53,286.99 296.97,288.82 297.19,290.86C297.77,295.74 297.48,312.29 297.12,324.4C296.9,332.05 280,335.55 277.96,328.84C274.76,318.34 270.39,304.13 268.93,299.68C268.79,299.1 268.57,298.44 268.35,297.71C279.71,284.73 263.54,281.45 261.14,273.36C259.39,267.45 258.08,262.93 258.08,262.93C258.08,262.93 255.68,258.48 255.39,260.89C255.24,262.2 257.13,269.86 256.91,271.32C256.91,271.54 256.84,271.82 256.84,272.04C256.41,275.04 251.09,279.63 250.95,280.65C250.58,282.91 256.7,284.66 257.21,295.3C257.28,296.18 257.28,297.13 257.35,298.07C257.64,305.8 255.02,316.67 252.84,326.15C251.38,332.56 234.7,333 233.68,324.84C232.59,315.94 231.14,304.57 229.9,295.45C229.09,289.54 234.63,284.29 234.2,281.67C233.76,278.9 227.27,274.96 226.91,270.37C226.33,261.54 225.96,251.12 225.82,245.43C225.89,242.73 294.2,240.18 294.06,242.44ZM149.13,180.75C149.5,182.65 152.92,184.04 153.14,186C155.98,210.5 151.24,242.15 152.26,248.05C148.48,253.52 133.11,255.13 125.1,255.64C120.88,250.97 120.22,255.86 120.22,255.86L120.22,257.39C120.22,257.39 116.5,256.3 102.81,258.04C89.12,259.79 80.38,256.8 80.38,256.8L79.44,253.82L76.02,252.72C76.02,252.72 75.36,230.48 71.21,219.55C68.51,212.62 67.79,202.48 67.57,196C67.42,192.2 75.36,191.18 75.36,191.18C89.34,191.18 103.03,196.58 116.94,195.78C120.51,195.56 124.08,195.19 127.43,193.88C129.98,192.93 132.31,191.47 134.79,190.31C136.53,189.5 138.36,188.85 140.1,187.97C143.52,186.44 146.73,183.6 149.13,180.75ZM149.13,180.75"/>
	<path fill="#efd9c2" fill-rule="nonZero" d="M250.29,341.97C250.29,341.97 246.14,352.91 240.46,351.59C234.78,350.28 235.58,338.91 235.58,338.91C235.58,338.91 234.85,332.93 233.76,324.76C235.87,325.34 243.95,327.24 252.91,326.07C251.45,332.49 250.21,338.25 250.29,341.97ZM278.04,328.84C280.07,335.55 281.68,340.66 281.68,340.66C281.68,340.66 285.9,352.11 290.2,349.7C294.42,347.29 296.75,338.03 296.75,338.03C296.75,338.03 296.97,332.13 297.19,324.47C290.49,327.82 282.19,328.63 278.04,328.84ZM278.04,328.84"/>
	<path fill="#de7760" fill-rule="nonZero" d="M294.06,242.44C289.61,243.02 283.28,246.45 264.78,248.64C261.36,249.08 258.01,249.22 254.8,249.3L258.15,262.93C258.15,262.93 257.57,267.16 256.99,271.32C254.8,264.39 251.67,253.45 250.43,249.22C238.34,248.79 229.17,246.3 225.89,245.43C225.82,242.88 225.75,241.27 225.75,241.27C225.75,241.27 293.69,230.19 294.06,237.12C294.28,238.29 294.2,240.18 294.06,242.44ZM294.06,242.44"/>
	<path fill="#a44c3d" fill-rule="nonZero" d="M297.04,200C297.04,200 302.65,219.25 300.76,239.45C289.98,235.95 278.04,247.11 254.37,247.4C230.7,247.69 225.75,240.91 221.81,241.64C221.38,223.34 226.91,198.4 226.91,198.4"/>
	<path fill="#de7760" fill-rule="nonZero" d="M231.14,344.45C231.06,344.23 231.5,340.07 233.18,338.62C235.5,338.18 238.56,339.49 239.73,341.02C240.89,342.55 240.09,343.94 240.09,343.94C240.09,343.94 244.02,345.98 246.79,343.72C249.56,341.39 251.53,342.04 252.25,343.21C252.98,344.38 251.75,346.13 251.75,347.51C251.75,348.9 253.42,358.74 253.05,362.02C251.45,364.86 244.32,365.59 242.13,365.45C239.95,365.3 238.78,363.7 238.78,363.7C238.78,363.7 225.02,368.66 215.77,366.54C212.42,365.59 210.82,361.95 210.74,359.03C210.67,356.11 220.65,353.78 223.41,351.74C226.18,349.7 231.14,344.45 231.14,344.45ZM116.5,202.05C138.5,199.57 147.68,190.67 153.07,186.08C152.85,184.04 152.26,181.63 151.97,179.73L67.57,189.65C67.57,189.65 67.49,192.2 67.64,196C74.05,198.4 93.42,204.67 116.5,202.05ZM248.25,89.1C248.25,89.1 234.7,92.96 229.9,97.41C226.62,103.76 221.81,131.1 221.81,131.1C221.81,131.1 226.84,180.61 226.69,181.41C226.55,182.21 223.63,192.35 224.73,198.91C224.73,198.91 243.3,209.56 262.01,209.7C280.73,209.85 295.66,199.71 299.16,199.5C299.16,199.5 296.82,189.94 293.84,188.12C290.85,186.3 284.37,139.27 284.59,136.13C284.81,133 285.25,117.61 285.25,117.61L285.83,94.64C285.83,94.64 266.75,85.82 264.78,84.65C262.89,83.49 248.25,89.1 248.25,89.1ZM267.26,363.63C265.88,365.52 266.46,369.82 271.04,371.5C275.56,373.18 284.3,371.43 287.14,369.61C289.98,367.86 291.95,362.31 295.22,359.03L296.39,359.03C297.77,358.81 300.9,354.88 301.34,353.13C301.85,346.2 298.06,342.92 298.06,340.44C298.28,336.21 296.75,336.36 296.75,336.36L296.75,337.89C294.71,343.21 291.87,344.01 288.74,344.38C288.74,344.38 289.25,341.31 287.87,340.88C286.48,340.44 281.46,339.71 280.07,340.88C278.69,342.04 279.78,346.71 279.42,347.07C278.62,353.42 268.64,361.73 267.26,363.63ZM267.26,363.63"/>
	<path fill="#efd9c2" fill-rule="nonZero" d="M215.7,366.47C213,365.74 211.47,363.26 210.89,360.78C211.69,361 212.71,361.51 213.88,362.75C216.42,365.45 220.43,367.13 222.69,366.91C220.36,367.13 217.88,366.98 215.7,366.47ZM102.3,348.46L114.54,341.75C114.54,341.75 115.12,333.15 115.78,324.69C107.11,327.82 97.43,326.88 92.84,326.37C94,332.56 94.95,337.74 95.31,340.95C97.06,354.51 102.3,348.46 102.3,348.46ZM142.94,331.76C142.94,331.76 143.23,328.99 143.67,324.62C133.91,326 125.68,324.98 121.46,324.25C122.77,331.98 123.57,338.25 123.57,338.25C123.57,338.25 130.05,347 135.51,350.5C140.9,354 142.94,331.76 142.94,331.76ZM100.63,55.85C100.63,55.85 92.91,62.63 91.82,63.88C90.73,65.04 73.61,69.13 66.91,74.81C60.21,80.5 50.3,100.4 49.21,120.09C48.12,139.78 78.42,147.65 78.42,147.65L73.25,154.43C73.17,160.78 67.57,182.72 67.49,189.65C67.49,189.65 83.22,200.59 112.72,199.71C142.21,198.84 149.79,179.52 154.59,177.55C154.59,177.55 144.69,117.9 145.64,108.35L172.07,105.8L171.71,103.03L177.32,92.09L172.95,78.02C172.95,78.02 138.36,72.91 127.07,64.89L125.25,62.34C125.39,62.34 106.46,56 100.63,55.85ZM279.35,371.94C276.65,371.14 274.61,369.24 271.84,368.29C269.44,367.49 268.13,368.14 267.48,368.88C268.2,369.97 269.3,370.99 271.04,371.57C273.23,372.38 276.36,372.38 279.35,371.94ZM279.35,371.94"/>
	<path fill="#260e0d" fill-rule="nonZero" d="M100.48,51.48L98.52,48.49L99.1,50.16C97.13,48.63 95.82,44.48 95.82,44.48L96.11,46.59C93.05,43.6 86.21,32.52 89.63,23.55C93.05,14.58 100.05,14.58 102.23,14.22C114.32,0 130.56,18.67 138.94,17.5C139.59,27.27 134.13,30.91 134.13,30.91M171.27,103.03C171.27,103.03 171.49,105.95 172.22,105.8C172.95,105.65 173.09,101.64 173.09,101.64ZM171.27,103.03"/>
	<path fill="#a44c3d" fill-rule="nonZero" d="M119.93,121.7L119.27,118.41L120.66,118.12L121.39,121.62C121.89,121.7 122.48,121.77 123.06,121.98L123.06,134.09L121.31,134.09L120.95,129.79C116,130.15 115.63,122.71 119.93,121.7ZM264.64,80.06C264.85,76.12 272.14,70.22 273.52,60.38C274.9,50.53 271.92,45.64 270.54,43.38C270.54,43.38 270.17,41.2 268.71,39.59C265.29,32.38 258.45,35.29 258.37,35C258.3,34.63 257.86,32.59 257.86,32.59C257.13,34.85 254.88,37.19 254.88,37.19C254.88,37.19 242.35,33.18 235.07,40.91C227.79,48.63 230.63,55.56 229.75,59.28ZM268.93,93.33C266.24,98.14 256.84,104.49 254.29,105C251.82,105.58 249.85,102.81 247.38,100.4C244.9,98 244.97,93.62 244.46,94.5C244.1,95.15 244.24,97.2 245.48,99.6C246.72,102.01 251.38,106.38 253.2,106.46C263.47,104.78 268.93,94.86 269.66,93.91C270.39,93.04 270.32,92.09 268.93,93.33ZM264.85,145.17C263.76,145.1 267.4,149.84 267.62,150.13C267.98,150.64 268.42,151.23 269.08,151.15C269.08,149.7 268.28,148.45 267.48,147.29C266.82,146.27 266.02,145.17 264.85,145.17ZM277.09,139.27C277.23,137.45 276,135.62 274.25,135.11L274.54,135.7C274.54,137.23 275.63,138.76 277.09,139.27ZM263.11,164.2C262.89,164.28 262.67,164.42 262.74,164.64C262.81,164.71 262.89,164.79 263.03,164.79C264.13,165.08 265.22,165.3 266.31,165.52C266.6,165.59 266.96,165.59 267.26,165.52C267.55,165.37 267.77,165.08 267.62,164.79L267.98,164.93C266.53,163.98 264.71,163.7 263.11,164.2ZM272.21,183.6C271.99,183.96 271.84,184.47 272.21,184.77C273.16,185.57 274.68,182.58 274.46,181.78C273.74,179.66 272.57,182.87 272.21,183.6ZM293.84,187.97C293.62,187.83 293.33,187.32 293.04,186.59C281.09,184.62 271.77,175 270.32,162.89C270.17,162.89 270.1,162.96 270.1,162.96C270.32,163.33 272.72,191.69 295.51,189.87C295,189.07 294.42,188.34 293.84,187.97ZM166.61,349.63C161.59,347.88 149.5,340.95 148.33,338.25C147.16,335.55 147.38,331.4 143.02,330.81C129.11,332.71 131.14,337.59 131.65,338.25C127.21,341.09 123.43,337.38 123.43,337.38C121.97,337.09 121.24,338.4 120.88,340C120,337.09 118.18,335.19 116.65,335.34C107.91,336.28 103.18,339.42 104.49,343.43C97.5,346.05 95.24,341.02 95.24,341.02C90.73,344.16 93.57,351.96 94,354.95C94.44,357.94 91.6,362.39 92.11,365.45C92.62,368.51 99.83,370.41 102.89,369.97C106.02,369.53 108.93,366.61 108.93,366.61C108.93,366.61 114.76,370.92 126.05,372.96C137.41,375 148.48,370.77 148.98,366.61C149.06,365.96 149.06,365.3 149.06,364.57C150.88,365.45 155.54,367.42 160.71,367.56C167.48,367.78 173.02,362.09 173.09,358.3C173.38,354.51 171.64,351.38 166.61,349.63ZM285.32,117.54L285.39,113.6C282.91,109.66 280.95,107.7 280.95,107.7C280.95,107.7 279.64,126.95 284.73,134.09C284.95,128.98 285.32,117.54 285.32,117.54ZM285.32,117.54"/>
	<path fill="#efd9c2" fill-rule="nonZero" d="M255.68,36.16C259.1,37.11 260.48,39.52 260.48,39.52L258.52,39.52C256.91,37.84 254.8,37.19 254.8,37.19C254.51,37.55 255.68,36.16 255.68,36.16ZM297.41,132.34C282.33,132.34 270.1,144.59 270.1,159.68C270.1,174.78 282.33,187.03 297.41,187.03C312.48,187.03 324.72,174.78 324.72,159.68C324.72,144.59 312.48,132.34 297.41,132.34ZM297.41,132.34"/>
	<path fill="#f4a898" fill-rule="nonZero" d="M266.75,64.38C268.13,69.13 264.27,71.46 264.27,71.46L264.85,84.87C264.64,91.95 252.69,97.78 252.69,97.78C249.78,96.32 249.12,90.12 247.52,87.5C247.52,87.5 242.13,88.45 240.46,87.5C229.53,79.91 230.11,66.94 230.19,65.84C230.26,64.75 229.61,63.51 229.61,61.25C229.61,58.99 231.57,50.75 231.57,50.75C233.39,55.56 246.43,51.84 246.43,51.84C247.23,58.11 256.41,61.83 257.5,64.46C257.79,65.04 260.99,65.19 260.99,65.19C260.99,62.34 265.36,59.72 266.75,64.38ZM227.49,171.5C227.49,171.5 227.71,164.2 227.71,151.45C227.71,138.61 225.75,125.34 227.71,113.96C229.68,102.59 228.8,98.87 229.9,97.34C225.45,101.21 211.25,131.39 214.31,143.42C217.37,155.45 224.73,171.06 224.73,171.06C223.13,171.42 223.56,174.48 223.56,174.48C223.56,174.48 221.81,175.29 223.05,177.47C221.45,179.22 223.71,181.92 225.31,182.87C226.91,183.82 227.05,181.92 226.69,181.34C227.57,181.78 228.59,181.63 228.44,179.73C229.61,180.54 230.48,179.15 229.97,178.06C229.97,178.06 231.43,177.47 230.55,175.43C229.68,173.46 227.71,172.08 227.49,171.5ZM326.39,199.79C326.03,197.45 322.02,188.19 321.88,185.5C321.73,182.8 323.63,149.62 322.75,138.68C321.88,127.75 298.21,100.04 285.83,94.57C278.33,97.56 280.37,119.95 285.83,126.87C291.29,133.87 302.8,142.62 302.8,142.62C299.16,151.45 308.7,185.5 308.48,188.12C308.26,190.75 307.6,199.93 307.38,202.7C307.16,205.47 307.75,208.68 308.04,209.56C308.33,210.43 310.3,210.65 310.88,206.2C310.88,206.2 313.57,212.98 314.52,213.79C315.83,215.75 318.16,214.52 317.65,211.96C318.75,214.44 321.29,213.05 321.22,210.72C322.68,212.77 324.64,211.52 324.57,209.12C325.52,210 327.7,210.65 326.39,199.79ZM326.39,199.79"/>
	<path fillAlpha="0.25" fill="#260e0d" fill-rule="nonZero" d="M149.57,108.06L145.78,108.43C145.71,100.62 147.75,96.1 149.28,95.01C150.52,94.06 148.91,102.01 149.57,108.06ZM83.52,103.03C81.77,105.29 79.36,120.09 79.29,123.81L79,127.82C79.66,128.04 80.53,128.33 81.48,128.55C81.91,121.84 85.12,100.99 83.52,103.03ZM94.51,82.76C98.45,82.46 100.27,74.52 101.57,74.66C102.89,74.74 104.78,75.18 104.93,74.66C105,74.15 102.16,73.13 100.7,74.15C99.25,75.25 95.02,82.68 94.37,81.59C93.13,75.39 91.89,63.8 91.89,63.8L90.07,64.68C90.07,64.68 90.29,68.47 90.73,71.89C91.16,75.32 91.75,83.2 94.51,82.76ZM122.91,73.35C123.79,73.35 123.79,74.23 125.39,75.46C126.92,76.71 131.14,80.28 131.95,78.82C131.65,73.57 127.07,63.44 127.21,65.99C127.21,67.01 131.29,77.21 130.13,77.21C128.96,77.21 124.08,71.75 122.99,71.6C121.89,71.53 120,73.86 120,73.86C119.86,75.46 122.04,73.28 122.91,73.35ZM104.85,178.28C104.85,178.28 118.18,186.08 139.01,184.11C139.3,184.11 139.59,184.04 139.88,184.04L140.68,182L107.18,175.14C107.18,175 107.26,174.92 107.26,174.78C108.35,170.4 114.61,150.79 114.61,150.79C110.39,149.26 90.14,154.14 73.68,154.07L73.46,154.36C73.46,155.09 73.39,156.11 73.25,157.2C79,156.77 92.33,155.53 112.14,152.25C114.1,152.03 104.85,178.28 104.85,178.28ZM114.54,150.86C114.54,150.86 114.68,150.93 114.83,151.01C114.76,150.93 114.61,150.86 114.54,150.86ZM112.43,341.82C108.71,340.8 104.34,341.82 104.34,341.82L104.56,343.36C106.6,342.92 110.32,342.19 112.86,343.36C115.48,344.52 124.73,352.91 125.9,353.05C127.07,353.2 116.07,342.84 112.43,341.82ZM131.29,337.3L131.65,338.32C131.65,338.32 135.8,336.72 138.36,337.59C140.98,338.47 150.08,347.88 151.83,348.17C153.57,348.46 141.12,337.67 138.86,336.72C136.68,335.7 131.29,337.3 131.29,337.3ZM107.26,368L109,366.54C106.24,365.16 104.13,364.36 107.26,368ZM131.29,349.19C123.43,345.47 122.55,340.88 122.41,337.45C121.6,337.81 121.09,338.84 120.88,340C121.02,340.59 121.17,341.17 121.24,341.82C126.34,349.92 137.19,354.36 142.43,356.19C146.88,357.72 148.91,361 149.13,364.5C150.37,365.08 152.77,366.18 155.83,366.83C151.9,354.8 140.54,353.56 131.29,349.19ZM270.54,43.38C270.54,43.38 270.39,42.36 269.8,41.2C267.62,39.96 264.2,38.57 259.68,38.5L260.56,39.52C264.13,39.59 267.84,41.27 270.54,43.38ZM250,247.4C251.38,247.4 252.84,247.47 254.37,247.4C254.37,247.4 251.02,224.94 249.78,224.21C248.76,223.63 249.34,239.96 250,247.4ZM247.08,53.81C246.72,51.26 251.75,43.68 250.14,45.06C248.76,46.23 246.79,50.16 246.5,51.48C246.43,51.7 246.43,51.77 246.5,51.84C246.57,52.5 246.79,53.16 247.08,53.81ZM302.87,142.62C302.87,142.62 296.97,138.1 291.58,133C290.78,133.14 289.98,133.36 289.18,133.65C291.14,135.91 295.59,140.8 299.3,143.13C296.1,145.83 286.34,153.41 277.6,154.87C275.85,155.75 276.65,156.77 280,156.18C282.84,155.67 296.46,147.95 300.46,145.54C300.03,149.11 299.23,158.15 300.18,168.8C283.13,174.41 284.95,177.77 286.34,176.6C290.56,175.07 296.75,172.59 300.39,171.13C300.98,176.02 301.92,181.19 303.45,186.3C304.98,185.93 306.44,185.42 307.89,184.84C306.07,175.5 299.74,150.06 302.87,142.62ZM262.09,209.56C246.87,209.48 231.79,202.41 226.62,199.79C226.33,201.03 225.96,203.14 225.45,205.84C230.7,207.66 247.96,212.98 267.98,210.94C286.34,209.05 293.33,204.89 297.84,203.14C297.41,201.17 297.04,200.08 297.04,200C291.43,202.27 278.18,209.7 262.09,209.56ZM262.09,209.56"/>
	<path fill="#de7760" fill-rule="nonZero" d="M263.76,65.77C262.74,66.43 263.03,69.05 262.6,68.1C262.16,67.16 263.32,64.75 264.13,64.68C264.85,64.53 264.78,65.11 263.76,65.77ZM123.28,219.4C121.09,222.46 120.15,245.8 120.15,255.93C120.15,255.93 122.11,255.93 125.03,255.71C124.95,244.34 125.17,216.77 123.28,219.4ZM79.44,253.89L76.96,253.09C77.25,243.75 78.34,249.73 79.44,253.89ZM220.79,134.89C220.07,134.53 224.65,133.36 227.13,134.82C227.2,135.7 227.2,136.64 227.27,137.52C227.13,136.28 221.59,135.33 220.79,134.89ZM226.69,181.34C226.84,181.56 226.91,181.92 226.91,182.21C225.82,181.48 224,180.03 222.69,178.13C222.76,177.91 222.91,177.69 223.13,177.47C223.05,177.47 224.73,180.03 226.69,181.34ZM228.51,179.73C228.51,180.03 228.51,180.32 228.44,180.54C227.57,179.95 226.18,179 225.16,177.69C224.36,176.75 223.71,175.65 223.2,174.78C223.41,174.56 223.56,174.48 223.56,174.48C223.56,174.48 225.16,177.98 228.51,179.73ZM229.97,178.06C230.04,178.2 230.11,178.42 230.11,178.57C229.31,178.35 228.07,177.69 226.84,176.02C225.53,174.19 224.58,172.59 224.36,171.2C224.43,171.2 224.65,171.06 224.73,171.06C225.02,172.95 226.62,175.14 227.57,176.31C228.51,177.47 229.97,178.06 229.97,178.06ZM224.73,171.06C224.73,171.06 224.36,170.33 223.85,169.09C223.85,169.09 225.23,166.46 227.64,165.22C227.64,165.59 227.64,166.03 227.64,166.32C226.18,167.12 224.14,168.65 224.73,171.06ZM248.47,89.61C248.18,88.81 247.89,88.08 247.52,87.5C250.8,86.77 253.49,84.43 254.8,84.65C256.11,84.87 250.65,88.96 248.47,89.61ZM97.86,39.88C100.12,35.29 104.13,38.72 103.83,40.69L107.04,40.1C107.04,40.1 112.21,31.86 112.21,25.38C117.67,28.44 126.55,30.7 133.98,29.6L134.86,35.44L133.18,41.63C133.18,41.63 134.06,45.21 133.55,48.13C133.04,51.04 128.74,61.76 124.3,62.63C119.86,63.58 117.82,62.63 117.82,62.63C117.82,62.63 119.49,63.88 119.86,70.29C120.22,76.71 117.82,86.26 117.82,86.26C117.82,86.26 102.3,74.01 101.29,65.48C100.27,56.95 100.48,48.85 100.48,48.85C100.48,48.85 95.24,45.13 97.86,39.88ZM121.97,130.45C125.97,130.23 143.67,137.59 143.67,137.59C143.67,137.59 131.36,163.4 129.91,164.5C128.45,165.52 117.67,152.03 114.54,150.86C108.86,148.75 74.7,158.3 58.9,152.03C46.96,147.36 49.21,120.09 49.21,120.09C49.21,120.09 69.39,124.03 79.29,123.81L79,127.82C85.19,130.01 104.42,132.92 112.06,133.07C112.06,133.14 117.89,130.66 121.97,130.45ZM237.4,87.93C238.13,89.18 238.71,94.28 238.05,95.45C235.07,97.78 233.98,95.3 233.98,95.3C230.92,96.39 224.73,105.14 224.73,105.14C224.73,105.14 220.14,103.68 216.5,100.48C212.93,97.34 187.59,106.46 171.2,102.96C170.54,92.68 172.95,77.95 172.95,77.95C177.75,78.68 218.17,87.28 221.74,87.06C225.31,86.84 229.39,85.02 230.77,84.58C232.23,84.14 236.45,86.91 237.4,87.93ZM321.73,202.34C321.15,202.41 320.57,202.41 320.05,202.63C319.62,202.85 319.33,203.21 318.89,203.58C318.31,204.02 317.65,204.16 316.93,204.09C316.78,204.23 316.41,203.94 316.49,203.72C316.56,203.5 316.71,203.36 316.93,203.36C317.14,203.36 317.36,203.29 317.51,203.29C318.31,203.14 318.75,202.19 319.55,201.9C320.42,201.54 321.59,202.05 322.31,201.46C322.61,201.25 322.75,200.95 323.04,200.73C323.33,200.52 323.99,200.52 324.13,200.81C323.63,201.61 322.75,202.19 321.73,202.34ZM324.72,209.12C324.72,209.56 324.72,210 324.57,210.36C324.57,210.36 323.55,205.4 323.55,204.89C323.55,204.38 323.91,203.72 323.99,204.16C323.99,204.16 324.57,207.52 324.72,209.12ZM317.8,211.96C317.87,212.4 317.87,212.84 317.8,213.2C317.8,213.2 316.13,208.46 315.98,207.73C315.83,207 316.2,206.86 316.34,207.3C316.27,207.3 317.58,210.72 317.8,211.96ZM317.51,213.93C317.65,213.57 317.8,213.27 317.8,213.27C317.73,213.49 317.65,213.71 317.51,213.93ZM320.57,205.98C320.57,205.98 321.29,209.7 321.44,210.72C321.44,210.72 321.44,210.72 321.44,210.8C321.44,211.09 321.44,211.38 321.29,211.67C321.29,211.6 320.27,207.22 320.27,206.64C320.2,206.06 320.49,205.62 320.57,205.98ZM310.15,201.54C310.15,201.54 311.17,205.18 311.03,206.28C310.88,207.59 310.59,208.46 310.22,209.05C310.01,206.5 309.64,201.1 310.15,201.54ZM305.64,139.27C305.56,140.07 303.23,141.16 302.87,142.62C302.87,142.62 302.43,142.26 301.7,141.67C303.16,138.83 305.71,138.54 305.64,139.27ZM305.64,139.27"/>
	<path fill="#260e0d" fill-rule="nonZero" d="M242.2,295.16C240.16,295.01 234.85,295.67 229.97,295.38C229.17,289.47 228.51,284.51 228.15,281.82C227.71,279.04 227.35,274.89 227.05,270.22C231.35,270.66 245.92,272.26 256.91,271.97C256.48,274.96 256.11,277.8 255.97,278.75C255.61,281.01 256.77,284.51 257.28,295.16C252.98,295.3 244.61,295.38 242.2,295.16ZM295.95,285.32C294.35,280.5 291.95,277.07 291.51,273.36C291.36,271.97 291.51,268.98 291.8,265.34C288.81,267.38 283.71,270.22 276.8,271.82C268.06,273.87 263.25,273.65 261.21,273.29C263.54,281.38 266.68,292.1 268.42,297.64C270.54,298 273.52,298 277.89,297.2C285.1,295.74 292.45,288.96 295.95,285.32ZM126.63,39.96C126.41,41.63 128.38,46.88 128.16,47.69C127.94,48.49 125.1,48.85 125.39,49.58C125.68,50.31 128.67,49.22 128.96,47.76C129.18,46.3 127.36,40.32 127.5,39.52C127.5,39.08 126.92,38.28 126.63,39.96ZM128.23,119.29C127.79,119.21 121.39,131.17 120.07,135.98C120.07,135.98 123.71,137.95 126.12,138.39C127.87,139.12 131.14,137.88 133.69,136.71C135.95,135.62 136.53,137.95 135.66,138.98C137.84,139.05 136.9,141.82 135.88,142.48C137.41,143.2 136.1,146.12 133.98,147.43C134.79,148.96 132.89,150.28 130.63,151.73C128.59,153.05 124.59,154.29 123.06,154.07C120.15,153.56 114.46,150.93 114.46,150.93C114.46,150.93 108.2,170.55 107.11,174.92C107.11,175.07 107.04,175.21 107.04,175.29C106.31,178.71 143.6,182.43 143.6,182.43C143.6,182.43 157.73,142.4 162.75,127.82C162.82,127.67 135.88,120.6 128.23,119.29ZM121.75,38.21C121.02,38.21 120.44,39.01 120.44,39.96C120.44,40.91 121.02,41.71 121.75,41.71C122.48,41.71 123.06,40.91 123.06,39.96C123.06,39.01 122.48,38.21 121.75,38.21ZM131.36,38.94C130.63,38.94 130.05,39.74 130.05,40.69C130.05,41.63 130.63,42.44 131.36,42.44C132.09,42.44 132.67,41.63 132.67,40.69C132.67,39.74 132.09,38.94 131.36,38.94ZM117.45,35.58C118.25,35.58 120.8,33.91 123.13,35.14C124.3,35.66 123.13,33.25 120.95,33.1C118.76,32.88 116.65,35.36 117.45,35.58ZM128.45,34.93C128.89,35.07 131.51,34.34 133.33,35.29C134.27,35.58 133.33,33.83 131.65,33.54C129.98,33.25 128.01,34.71 128.45,34.93ZM128.45,34.93"/>
	<path fill="#a44c3d" fill-rule="nonZero" d="M243,365.45C242.64,365.45 242.35,365.45 242.06,365.45C239.88,365.23 238.71,363.7 238.71,363.7C239.44,363.48 240.75,362.02 241.91,361.95C242.71,361.8 243.3,363.77 243,365.45ZM230.33,345.25C233.54,346.34 232.66,344.96 231.06,344.45C231.14,344.45 230.84,344.74 230.33,345.25ZM240.09,343.94C240.09,343.94 240.31,343.57 240.38,342.92C239.51,342.84 238.42,342.84 237.47,343.06C235.65,343.43 231.79,348.39 230.04,349.41C228.29,350.43 225.16,353.64 226.47,352.98C227.79,352.4 234.7,346.42 236.52,344.59C238.34,342.77 240.09,343.94 240.09,343.94ZM245.63,283.93C244.61,284.66 240.46,289.4 236.6,290.13C232.74,290.86 236.09,292.68 241.11,290.13C246.14,287.57 246.65,283.27 245.63,283.93ZM286.85,283.2C286.27,284.66 285.61,286.04 284.81,287.36C284.45,287.94 284.08,288.52 283.71,289.11C283.64,289.18 283.57,289.32 283.64,289.4C283.64,289.47 283.71,289.47 283.79,289.47C284.3,289.69 284.95,289.54 285.39,289.18C285.83,288.82 286.19,288.38 286.55,287.87C287.36,286.77 288.16,285.61 288.45,284.29C288.67,283.57 288.74,282.76 288.74,282.04C288.74,281.67 288.74,281.23 288.59,280.87C287.87,279.19 287.07,282.69 286.85,283.2ZM120.22,257.46C121.46,274.09 117.31,305.44 117.31,305.44C117.89,307.34 118.4,309.45 118.91,311.64C124.01,294.07 124.01,255.93 124.01,255.93L120.22,255.93ZM116.58,274.16C113.3,275.04 108.79,274.01 107.84,275.04C106.82,276.05 111.7,279.77 114.54,278.82C117.38,277.95 117.45,273.94 116.58,274.16ZM145.78,271.24C142.72,272.63 138.86,272.34 138.72,273.07C138.57,273.79 140.83,276.93 143.02,276.57C145.34,276.27 147.46,270.51 145.78,271.24ZM236.96,74.59C237.62,74.74 237.25,74.01 236.3,73.64C235.29,73.28 234.56,72.99 235.29,71.16C236.02,69.34 236.74,68.03 236.96,66.5C237.18,64.89 236.96,64.31 236.67,64.68C236.3,65.11 235.8,68.32 235.14,69.78C234.48,71.24 232.96,73.43 236.96,74.59ZM238.34,80.64C240.82,81.37 242.28,79.77 242.71,78.6C243.15,77.43 242.86,76.71 242.42,77.29C240.68,81.81 236.89,79.26 236.89,79.26C236.3,78.96 235.87,79.91 238.34,80.64ZM241.77,62.34C241.11,62.34 240.53,63.22 240.53,64.24C240.53,65.33 241.04,66.13 241.77,66.13C242.42,66.13 243,65.26 243,64.24C242.93,63.14 242.42,62.34 241.77,62.34ZM231.57,65.48C231.57,66.57 232.08,67.38 232.81,67.38C233.46,67.38 234.05,66.5 234.05,65.48C234.05,64.38 233.54,63.58 232.81,63.58C232.16,63.58 231.57,64.38 231.57,65.48ZM245.04,59.13C245.63,59.5 245.48,57.97 243,57.31C240.53,56.66 238.64,58.41 239.29,58.84C239.58,59.43 242.42,57.6 245.04,59.13ZM230.11,60.59C230.48,60.66 232.59,58.48 235.21,59.79C235.94,59.86 234.85,58.19 232.81,58.26C230.77,58.26 229.61,60.45 230.11,60.59ZM101.21,42.66C101.87,43.09 101.72,46.01 102.3,44.63C102.89,43.24 100.12,39.52 99.03,41.13C98.59,41.78 100.55,42.14 101.21,42.66ZM121.53,56.73C123.21,57.68 125.39,53.74 125.39,53.74C125.39,53.74 120.88,52.57 120.73,52.43C120.66,52.43 119.78,55.78 121.53,56.73ZM119.27,65.91C118.62,63.36 117.82,62.71 117.82,62.71C115.85,62.2 113.88,60.3 113.16,60.59C112.5,60.88 115.85,65.19 119.27,65.91ZM49.21,120.09C49.21,120.09 49.14,120.89 49.07,122.2C51.98,123.23 58.75,125.2 68.29,126.07C64.51,127.38 63.93,129.71 66.84,128.98C69.75,128.26 76.3,126.95 78.93,127.75L79.22,123.73C69.39,124.03 49.21,120.09 49.21,120.09ZM229.09,94.71C229.46,94.86 230.11,96.46 229.82,98.51C230.84,97.49 232.01,96.39 233.03,95.66C233.32,96.18 233.9,96.83 234.56,97.12C236.09,97.78 237.84,96.76 238.13,95.96C238.34,95.23 238.42,93.11 238.49,92.53C238.34,92.6 238.42,92.53 238.27,92.6C238.2,93.91 238.13,94.86 238.05,95.3C238.05,95.37 237.98,95.45 237.91,95.52C235.07,97.71 234.2,95.08 234.2,95.08L233.76,93.84C233.39,93.04 232.81,91.8 233.83,89.98C234.34,89.25 233.25,89.39 232.23,90.71C231.21,92.02 227.35,95.66 221.74,94.5C220.72,94.28 221.38,94.93 223.2,95.45C225.6,96.1 228.51,94.5 229.09,94.71ZM130.34,144.45C128.16,145.1 125.68,145.9 126.63,146.05C128.16,145.98 134.57,143.57 135.88,142.4C136.02,142.26 136.24,142.11 136.39,141.89C136.39,141.96 132.53,143.79 130.34,144.45ZM136.1,138.1C134.64,139.2 131.36,140.8 128.89,141.53C125.9,142.4 125.1,142.55 126.27,142.62C129.03,142.84 135.08,139.78 135.73,138.98C135.88,138.68 136.02,138.39 136.1,138.1ZM126.7,150.2C129.25,150.79 132.96,147.95 134.06,147.36C134.49,147.07 134.93,146.7 135.29,146.27C135.22,146.27 131.73,148.09 129.61,148.75C127.5,149.4 125.9,149.98 126.7,150.2ZM120.15,135.91C120.29,135.4 120.51,134.82 120.73,134.16C119.93,134.31 119.35,134.38 119.05,134.38C117.74,134.53 120.15,135.91 120.15,135.91ZM286.34,344.45C284.88,345.54 282.19,351.96 281.46,353.86C280.73,355.75 278.18,359.54 279.49,358.3C280.8,357.06 284.52,349.26 285.54,346.71C286.48,344.16 288.01,344.89 288.74,344.52L288.81,343.87C288.74,343.79 287.72,343.36 286.34,344.45ZM296.46,356.04C295.88,356.55 295.66,358.38 295.15,359.11L296.32,359.11C296.46,359.11 296.68,359.03 296.9,358.89C296.97,357.5 296.9,355.68 296.46,356.04ZM121.68,119.21C123.21,109.37 126.19,89.32 126.63,76.34C126.12,75.9 124.23,74.23 124.23,74.23C124.23,74.23 121.39,105.58 119.93,115.71C119.93,115.71 105.44,82.54 100.63,75.54L99.03,78.16L118.47,120.16C118.47,120.23 119.86,120.09 121.68,119.21ZM121.68,119.21"/>
	<group>
		<clip-path d="M99.48,19.71L103.74,19.71L103.74,23.32L99.48,23.32ZM99.48,19.71"/>
		<group>
			<clip-path d="M103.73,21C101.85,24 100.05,23.48 99.68,22.8C99.3,22.2 99.6,20.32 100.2,19.88C100.8,19.43 103.2,20.1 103.2,20.1"/>
			<path fill="#260e0d" fill-rule="nonZero" d="M96.68,16.88L106.81,16.88L106.81,26.7L96.68,26.7ZM96.68,16.88"/>
		</group>
	</group>
</svg>
