<svg xmlns="http://www.w3.org/2000/svg"  height="500"  width="500">
	<path fill="#fdf0e9" fill-rule="nonZero" d="M82.77,203.96C82.59,204.81 82.09,205.64 81.57,206.37C76.46,213.46 67.89,218.21 65.05,226.47C64.39,228.4 64.05,230.5 62.85,232.15C61.97,233.36 60.71,234.22 59.45,235.03C55.59,237.5 46.59,244.31 41.93,242.92C37.24,241.52 31.95,233.51 29.07,229.83C21.62,220.3 15.45,209.47 5.77,201.91C4.22,200.7 2.39,198.88 3.26,197.11C4,195.61 6.11,195.56 7.76,195.84C14.37,196.98 20.66,199.91 25.79,204.23C20.05,195.16 14.31,186.1 8.57,177.03C7.98,176.1 7.37,174.98 7.77,173.95C8.41,172.28 10.84,172.51 12.51,173.17C18.09,175.39 23.1,179.05 26.91,183.69C24.91,177.84 22.91,172 20.91,166.16C20.63,165.34 20.35,164.46 20.55,163.62C20.91,162.16 22.67,161.41 24.15,161.66C25.63,161.91 26.87,162.91 27.97,163.92C33.73,169.18 38.04,176.01 40.31,183.47C40.61,176.61 40.91,169.76 41.21,162.91C41.24,162.22 41.27,161.5 41.6,160.89C42.82,158.62 46.42,159.89 48.07,161.88C51.64,166.2 52.27,172.14 53.04,177.7C54.26,186.57 56.18,195.35 58.78,203.92C59.03,204.74 59.33,205.62 60.04,206.11C60.91,206.7 62.09,206.49 63.09,206.16C68.69,204.32 73.69,199.52 79.52,200.39C80.82,200.58 82.21,201.19 82.68,202.42C82.87,202.92 82.88,203.44 82.77,203.96ZM372.39,197.73C372.37,197.65 372.34,197.57 372.3,197.49C371.66,195.93 369.52,195.82 367.85,196.09C361.08,197.18 354.63,200.2 349.47,204.71C355.34,195.43 361.21,186.14 367.08,176.86C367.62,176.01 368.18,174.96 367.75,174.04C367.23,172.91 365.66,172.84 364.44,173.09C357.96,174.38 352.95,179.37 348.36,184.12C350.46,178.07 352.57,172.01 354.68,165.95C354.89,165.36 355.1,164.74 355.02,164.11C354.87,162.84 353.52,161.98 352.25,161.96C350.96,161.94 349.77,162.56 348.7,163.27C341.68,167.91 338.16,176.19 335.02,183.99C334.74,177.06 334.46,170.13 334.19,163.2C334.15,162.36 334.1,161.47 333.64,160.77C332.21,158.65 328.82,160.21 327.27,162.24C323.19,167.57 322.64,174.7 321.75,181.35C320.71,189.04 318.99,196.63 316.62,204.01C316.25,205.14 315.73,206.42 314.6,206.79C313.86,207.03 313.05,206.8 312.32,206.53C306.41,204.32 300.75,199.06 294.73,200.98C293.93,201.23 293.11,201.66 292.71,202.4C292.02,203.68 292.81,205.25 293.68,206.43C296.88,210.81 301.19,214.24 304.87,218.23C306.86,220.39 308.7,222.78 309.96,225.44C311.15,227.93 311.1,231.08 312.7,233.07C316.43,237.7 326.01,241.15 331.3,243.7C331.94,244.01 332.62,244.32 333.34,244.3C334.71,244.27 335.73,243.08 336.57,241.99C341.44,235.61 346.31,229.24 351.19,222.86C356.92,215.36 362.73,207.79 370.05,201.81C371.34,200.76 372.82,199.27 372.39,197.73ZM258.96,110.55C258.9,109.27 258.63,108 258.1,106.8C256.47,103.12 252,100.63 248.21,102.01C247.21,102.38 246.24,102.98 245.18,102.88C244.33,102.79 243.6,102.25 242.91,101.73C235.02,95.82 226.2,91.13 216.88,87.88C217.57,76.3 216.3,64.6 213.13,53.43C212.71,51.97 211.9,50.23 210.38,50.2C208.19,50.15 207.86,53.32 208.21,55.48C209.95,65.89 209.43,76.67 206.71,86.87C201.17,86.53 195.62,86.18 190.07,85.84C191.04,84.07 189.56,81.52 187.54,81.48C185.53,81.45 183.96,83.96 184.88,85.75C179.3,86.1 173.73,86.45 168.16,86.79C165.44,76.58 164.92,65.79 166.65,55.37C167.01,53.21 166.66,50.03 164.47,50.1C162.97,50.15 162.18,51.86 161.77,53.3C158.57,64.46 157.29,76.16 158.01,87.75C147.5,91.59 137.59,97.03 128.71,103.82C126.54,101.02 121.93,100.96 119.2,103.22C116.47,105.48 115.53,109.4 116.15,112.89C116.76,116.38 118.71,119.49 120.93,122.25C124.58,126.77 129.96,130.87 135.68,129.85C140.95,146.1 153.79,159.73 169.7,165.98C170.07,171.31 170.44,176.64 170.81,181.98C170.95,184.04 170.49,187.7 171.45,189.53C172.18,190.91 174.47,191.7 175.82,192.3C183.94,195.97 193.83,195.66 201.59,191.23C202.48,190.72 203.39,190.12 203.86,189.2C204.24,188.45 204.29,187.58 204.32,186.74C204.63,179.85 204.93,172.96 205.23,166.06C221.41,159.64 234.39,145.63 239.54,129.01C242.02,131.38 246.06,129.34 248.71,127.18C251.84,124.63 254.92,121.89 256.93,118.39C258.29,116.03 259.09,113.25 258.96,110.55ZM258.96,110.55"/>
	<path fill="#bbb3d7" fill-rule="nonZero" d="M343.17,251.76C343.1,252.3 342.83,252.85 342.57,253.34C330.96,274.6 317.07,294.6 301.2,312.89C298.56,315.93 295.51,319.12 291.52,319.65C285.54,320.45 280.72,315.1 277.09,310.29C268.15,298.44 259.21,286.59 250.27,274.74C251.43,307.25 252.4,340.88 240.24,371.07C240.04,371.59 231.27,371.06 230.29,371.06C226.82,371.06 223.37,371.06 219.91,371.05C213,371.05 206.08,371.05 199.16,371.05C185.33,371.04 171.5,371.03 157.67,371.03C150.82,371.02 143.89,371.33 137.04,371.02C134.13,370.88 133.96,369.58 133.2,366.9C132.31,363.76 131.48,360.6 130.72,357.43C127.68,344.73 125.67,331.8 124.71,318.78C123.53,302.9 123.92,286.9 125.89,271.1C116.96,284.78 107.55,298.14 97.69,311.16C95.27,314.36 92.55,317.73 88.69,318.8C81.91,320.68 75.64,314.82 71.18,309.39C56.8,291.89 43.97,273.13 32.88,253.39C32.39,252.52 31.89,251.47 32.32,250.56C32.61,249.95 33.26,249.59 33.86,249.27C45.12,243.39 56.37,237.5 67.63,231.62C68.69,231.06 69.91,230.49 71.04,230.89C72.07,231.25 72.67,232.28 73.18,233.24C77.63,241.51 82.07,249.79 86.51,258.06C89.89,241.16 99.69,225.89 112.57,214.43C125.45,202.98 141.29,195.16 157.8,190.17C160.91,189.23 164.17,188.38 167.39,188.82C171.34,189.36 174.75,191.77 178.43,193.28C185.5,196.19 193.87,195.69 200.53,191.97C204.27,189.88 208.46,186.74 212.35,188.53C217.06,190.7 216.24,197.64 214.11,202.37C208.13,215.64 197.66,226.85 184.82,233.73C196.15,241.78 211.71,237.7 224.9,233.31C230.66,231.39 236.52,229.43 241.46,225.89C246.4,222.35 250.36,216.94 250.65,210.88C250.74,209 251.06,206.41 252.94,206.33C253.7,206.29 254.39,206.77 255,207.23C271.67,219.77 283.89,238.1 289.07,258.3C293.42,250.06 297.77,241.82 302.11,233.58C302.63,232.6 303.23,231.54 304.27,231.18C305.43,230.76 306.68,231.34 307.76,231.91C319.03,237.8 330.3,243.69 341.58,249.58C342.17,249.89 342.8,250.25 343.07,250.86C343.19,251.15 343.21,251.45 343.18,251.76ZM343.17,251.76"/>
	<path fill="#5b463a" fill-rule="nonZero" d="M249.73,206.31C250.32,209.31 250.57,212.4 249.71,215.3C248.23,220.25 243.8,223.73 239.23,226.14C230.87,230.57 221.45,232.49 212.46,235.48C203.48,238.47 194.45,242.91 189.14,250.75C188.62,251.52 188.11,252.34 187.34,252.86C184.71,254.66 183.34,250.61 182.77,248.71C181.95,245.98 181.97,243 182.89,240.3C184.16,236.63 186.93,233.66 189.82,231.07C194.18,227.15 199,223.77 203.35,219.84C207.7,215.91 211.63,211.3 213.6,205.78C216.19,198.51 215.11,190.44 213.02,183.02C211.88,178.97 210.43,174.95 207.99,171.53C207.22,170.45 206.3,169.15 206.79,167.91C207.1,167.13 207.88,166.66 208.61,166.25C210.79,165.02 212.96,163.79 215.14,162.56C215.82,162.18 216.55,161.78 217.33,161.82C218.01,161.86 218.63,162.22 219.2,162.58C234.16,172 245.22,187.41 249.34,204.59C249.48,205.16 249.61,205.73 249.72,206.31ZM249.73,39.54C236.27,19.37 212.59,6.13 188.26,5.84C160.86,5.52 133.9,21.64 121.24,45.92C116.4,55.2 113.53,65.7 114.38,76.13C114.9,82.5 116.89,88.79 120.3,94.21C122.07,97 124.2,99.51 126.67,101.71C127.84,102.75 128.54,103.57 130.13,103.02C131.72,102.46 133.26,100.71 134.54,99.66C140.52,94.8 147.34,91 154.61,88.46C155.54,88.14 156.52,87.81 157.2,87.09C158.32,85.89 158.25,84.04 158.15,82.39C157.25,66.64 161.29,50.64 169.54,37.18C166.59,52.25 163.65,67.84 167.01,82.82C167.19,83.61 167.41,84.44 168.02,84.97C168.78,85.64 169.91,85.63 170.92,85.59C174.85,85.41 178.78,85.24 182.71,85.07C183.64,85.03 184.66,84.95 185.3,84.28C185.87,83.69 185.97,82.81 186.05,82C186.51,77.06 186.97,72.12 187.43,67.17C187.9,72.16 188.37,77.14 188.84,82.13C188.92,82.97 189.04,83.89 189.65,84.48C190.27,85.07 191.21,85.14 192.07,85.17C196.25,85.34 200.44,85.5 204.63,85.67C205.34,85.7 206.12,85.71 206.71,85.3C207.36,84.84 207.6,84.01 207.78,83.23C211.25,68.16 208.29,52.45 205.34,37.28C213.54,50.61 217.56,66.46 216.72,82.09C216.63,83.71 216.54,85.48 217.49,86.79C218.34,87.95 219.8,88.45 221.16,88.94C229.18,91.78 236.62,96.22 242.92,101.93C243.73,102.66 244.68,103.47 245.76,103.3C246.33,103.21 246.82,102.86 247.28,102.5C255.13,96.29 259.65,86.45 260.49,76.48C261.33,66.52 258.74,56.47 254.32,47.49C252.97,44.74 251.43,42.09 249.73,39.54ZM249.73,39.54"/>
	<path fill="#323232" fill-rule="nonZero" d="M75.48,117.43C74.37,122.05 79.91,123.52 83.29,122.49C87.07,121.33 89.86,117.92 92.38,115.08C94.48,112.72 97.94,116.2 95.85,118.55C92.18,122.67 87.81,127.27 81.94,127.7C77.61,128.03 72.83,126.07 71.09,121.86C65.99,109.56 86.21,102.6 94.63,101.36C97.71,100.91 99.04,105.63 95.93,106.09C89.63,107.02 77.25,110.02 75.48,117.43ZM273.41,47.63C281.27,46.14 289.52,46.16 297.27,48.3C298.76,48.71 304.52,50.5 301.84,53.6C300.82,54.77 298.39,54.86 297,54.99C293.26,55.34 289.48,55.1 285.76,54.62C282.64,54.21 282.67,59.11 285.76,59.52C291.03,60.2 298.15,61.04 303.13,58.54C307.02,56.57 308.45,52.24 306.14,48.42C303.31,43.77 296.8,42.95 291.89,42.27C285.27,41.35 278.66,41.66 272.1,42.9C269.01,43.49 270.32,48.21 273.41,47.63ZM192.85,153.87C196.53,152.37 199.38,148.67 199.3,144.7C199.29,143.6 199.05,142.51 198.82,141.43C198.82,141.42 198.82,141.41 198.82,141.41C198.69,140.81 198.54,140.18 198.09,139.77C197.76,139.48 197.32,139.35 196.89,139.25C195.13,138.83 193.3,138.72 191.49,138.67C188.96,138.59 186.44,138.6 183.92,138.7C182.29,138.77 180.66,138.87 179.07,139.22C178.68,139.3 178.29,139.41 177.98,139.65C177.65,139.91 177.45,140.3 177.3,140.7C176.4,142.88 176.31,145.38 177.04,147.62C179.11,153.97 187.01,156.25 192.85,153.87ZM69.09,64.24C74.07,66.75 81.18,65.9 86.45,65.21C89.54,64.82 89.57,59.91 86.45,60.32C82.73,60.8 78.95,61.04 75.21,60.7C73.82,60.57 71.39,60.47 70.38,59.3C67.69,56.2 73.45,54.41 74.94,54C82.69,51.86 90.95,51.84 98.81,53.33C101.89,53.91 103.21,49.19 100.11,48.61C93.55,47.36 86.95,47.05 80.32,47.97C75.41,48.64 68.9,49.47 66.07,54.12C63.76,57.94 65.19,62.27 69.09,64.24ZM288.93,116.79C285.14,115.63 282.36,112.22 279.83,109.38C277.73,107.02 274.27,110.5 276.36,112.85C280.03,116.97 284.4,121.57 290.27,122C294.61,122.32 299.38,120.37 301.13,116.16C306.22,103.86 286,96.9 277.59,95.66C274.5,95.21 273.17,99.93 276.29,100.39C282.58,101.32 294.96,104.32 296.73,111.73C297.84,116.35 292.3,117.82 288.93,116.79ZM160.71,106.2C154.61,106.43 148.84,109.86 145.24,114.79C144.91,115.23 144.61,115.69 144.48,116.22C143.99,118.29 146.32,119.71 148.01,118.6C148.71,118.14 149.21,117.46 149.75,116.82C153.04,112.89 158.21,110.22 163.28,111.04C167.12,111.65 170.39,114.11 173.25,116.75C173.94,117.39 174.87,118.09 175.72,117.7C176.16,117.5 176.43,117.05 176.51,116.56C176.53,116.45 176.53,116.33 176.53,116.22C176.51,115.62 176.25,115.06 175.97,114.54C173.06,109.17 166.82,105.96 160.71,106.2ZM186.84,130.87C187.66,131.31 188.75,131.26 189.42,130.26C190.01,129.37 189.75,128.03 188.86,127.43C187.98,126.84 186.63,127.11 186.04,127.99C185.25,129.16 185.88,130.35 186.84,130.87ZM227.3,132.68C226.6,132.88 226.36,133.53 226.45,134.19C226.73,136.26 226.46,138.55 225.57,140.46C225.22,141.21 224.71,142.06 223.9,142.38C223.32,142.61 222.57,142.59 222.21,142.02C221.82,141.38 221.94,140.43 221.99,139.72C222.07,138.54 222.18,137.37 222.27,136.2C222.46,133.73 222.66,131.27 222.85,128.8C222.97,127.23 220.52,127.24 220.4,128.8C220.16,131.84 219.92,134.87 219.68,137.91C219.5,140.2 218.99,143.4 221.56,144.6C224.04,145.77 226.54,144.01 227.63,141.8C228.9,139.23 229.2,136.34 228.81,133.54C228.72,132.88 227.88,132.52 227.3,132.68ZM374.41,198.98C374.07,200.3 373.16,201.39 372.27,202.44C360.59,216.21 348.91,229.99 337.23,243.76C340.44,245.22 343.65,246.67 346.86,248.13C335.51,272.82 320.21,295.7 301.73,315.64C298.2,319.45 293.88,323.43 288.69,323.15C283.63,322.88 279.8,318.64 276.64,314.69C268.09,303.97 259.99,292.89 252.37,281.5C255.04,309.18 252.83,337.32 245.88,364.25C244.83,368.3 241.09,373.36 237.7,370.94C254.84,332.99 245.13,288.99 247.85,247.45C252,271.58 263.89,294.32 281.32,311.53C284.18,314.34 287.71,317.2 291.7,316.78C295.31,316.4 298.04,313.46 300.37,310.68C315.93,292.15 329.63,272.06 341.22,250.83C328.66,246.38 316.67,240.3 305.64,232.8C298.49,245.59 291.34,258.38 284.19,271.17C289.95,247.29 272.04,224.32 253.07,208.7C253.57,220.21 242.92,229.26 232.14,233.35C221.35,237.44 209.41,238.63 199.44,244.43C193.8,247.71 188.76,255.51 193.29,260.21C183.25,261.13 177.84,247.11 181.93,237.89C186.02,228.68 195.19,223.01 202.52,216.08C209.85,209.16 215.82,198.29 211.21,189.32C201.63,196.86 188.08,199.04 176.61,194.89C172.93,193.55 169.38,191.6 165.48,191.26C161.44,190.91 157.47,192.33 153.68,193.8C136.88,200.36 120.3,208.66 107.86,221.71C95.41,234.76 87.63,253.3 91.14,270.98C84.02,258.14 76.89,245.31 69.77,232.48C58.74,239.99 46.75,246.07 34.16,250.53C45.71,271.75 59.41,291.8 74.97,310.28C77.36,313.12 80.16,316.12 83.84,316.51C88.09,316.96 91.8,313.81 94.76,310.73C111.43,293.38 123.11,271.29 128.07,247.74C127.78,259.12 127.49,270.5 127.2,281.88C126.5,309.52 125.91,337.89 135.18,363.95C135.94,366.06 137.07,369.09 135.44,371.1C134.38,372.41 132.64,372.88 131.7,371.38C130.82,369.97 130.69,367.23 130.23,365.63C129.53,363.14 128.86,360.63 128.25,358.11C125.15,345.52 123.16,332.66 122.29,319.72C121.85,313.25 121.69,306.77 121.82,300.28C121.88,297.04 122.01,293.8 122.22,290.57C122.32,288.88 122.45,287.2 122.59,285.52C122.68,284.52 122.45,282.08 123,281.26C115.39,292.63 107.3,303.68 98.76,314.36C95.63,318.29 91.85,322.48 86.84,322.82C81.5,323.19 77.02,319.06 73.39,315.12C55.05,295.18 39.83,272.38 28.45,247.8C31.69,246.36 34.93,244.91 38.17,243.47C26.49,229.7 14.8,215.93 3.13,202.15C2.23,201.1 1.32,200 0.97,198.67C0.04,195.06 3.98,191.7 7.71,191.72C11.44,191.74 14.75,193.98 17.79,196.13C14.13,190.7 10.47,185.27 6.81,179.84C5.72,178.22 4.58,176.46 4.63,174.5C4.72,170.82 9.17,168.53 12.79,169.25C16.4,169.97 19.24,172.68 21.87,175.27C19.8,172.26 17.64,169.02 17.55,165.38C17.45,161.73 20.41,157.77 24.03,158.25C25.64,158.46 27.03,159.48 28.28,160.54C32.56,164.14 36.2,168.5 38.96,173.36C38.03,169.75 37.09,165.95 38.07,162.35C39.05,158.75 42.69,155.59 46.3,156.52C50.09,157.5 51.58,161.98 52.46,165.79C55.39,178.49 58.32,191.18 61.25,203.88C65.41,200.6 69.95,197.17 75.24,196.96C80.54,196.75 86.25,201.55 84.82,206.64C84.26,208.61 82.8,210.18 81.39,211.66C76.84,216.43 72.29,221.21 67.73,225.99C76.05,232.45 82.22,241.61 85.08,251.74C96.9,216.13 130.94,188.96 168.31,185.32C168.34,180.1 168.36,174.87 168.38,169.64C156.52,164.93 146.3,156.16 139.86,145.14C138.01,141.98 136.43,138.6 133.89,135.96C130.77,132.73 126.5,130.92 122.88,128.27C113.34,121.28 110.35,104.37 120.61,98.5C109.88,85.77 110.16,66.65 116.23,51.15C126.95,23.8 154.68,3.97 184.05,2.66C213.42,1.35 242.8,18.63 255.91,44.92C264.44,62.03 265.75,84.06 254.23,99.32C262.31,101.75 263.09,113.64 258.41,120.66C253.72,127.68 245.87,131.88 240.18,138.12C233.51,145.43 229.79,155.55 221.5,160.98C231.49,166.72 239.7,175.51 244.74,185.86C247,190.5 248.67,195.5 251.75,199.64C254.81,203.77 259.09,206.8 263,210.13C275.86,221.06 285.35,235.91 289.88,252.16C293.12,242.07 299.36,232.96 307.6,226.3C303.06,221.49 298.52,216.68 293.97,211.88C292.58,210.41 291.14,208.85 290.59,206.89C289.15,201.8 294.88,197.02 300.16,197.23C305.45,197.45 309.98,200.89 314.12,204.17C317.05,191.48 319.98,178.79 322.92,166.1C323.79,162.3 325.28,157.84 329.05,156.84C332.67,155.88 336.34,159.04 337.33,162.64C338.33,166.24 337.4,170.07 336.48,173.69C339.06,168.32 343.11,163.67 348.08,160.38C349.32,159.56 350.68,158.8 352.16,158.74C355.68,158.58 358.24,162.53 357.99,166.04C357.74,169.55 355.57,172.59 353.48,175.43C356.14,172.88 359,170.21 362.61,169.53C366.23,168.84 370.64,171.14 370.73,174.82C370.78,176.78 369.64,178.54 368.55,180.17C364.89,185.59 361.25,191.01 357.59,196.43C360.64,194.27 363.95,192.04 367.68,192.02C369.13,192.01 370.62,192.52 371.84,193.35C373.74,194.66 374.98,196.78 374.41,198.98ZM61.55,230.71C61.82,225.01 65.36,220 69.3,215.88C73.24,211.75 77.76,208.08 80.82,203.27C77.94,201.97 74.54,202.92 71.74,204.37C68.93,205.82 66.34,207.76 63.29,208.59C62.2,208.89 61.02,209.03 59.95,208.65C57.82,207.91 56.86,205.5 56.2,203.34C53.8,195.47 52.05,187.4 50.99,179.24C50.22,173.3 49.6,166.83 45.5,162.45C44.99,161.91 44.05,161.41 43.59,162C43.4,162.23 43.39,162.55 43.38,162.85C43.22,170.52 43.06,178.19 42.89,185.86C42.86,187.69 42.81,189.55 42.22,191.29C39.79,190.32 38.93,187.4 38.17,184.9C36.52,179.52 33.95,174.42 30.64,169.86C28.62,167.07 25.91,164.26 22.47,164.15C25.17,171.3 27.87,178.45 30.57,185.6C31.96,189.27 33.37,193.05 33.28,196.97C29.53,192.89 26.81,187.98 23.3,183.7C19.8,179.41 15.13,175.61 9.62,175.06C16,183.78 21.85,192.88 27.13,202.3C27.67,203.26 28.22,204.28 28.21,205.39C28.2,206.48 27.4,207.66 26.3,207.68C25.37,207.7 24.63,206.94 23.98,206.27C19.05,201.23 12.05,198.27 5,198.23C10.93,202.67 16.18,208.03 20.48,214.07C24.22,219.31 27.28,225.1 31.79,229.7C33.86,231.82 36.19,233.67 38.19,235.86C39.16,236.92 40.07,238.04 40.77,239.3C41.73,241.03 41.34,241.86 43.36,241.18C46.61,240.08 49.85,237.9 52.81,236.19C52.89,236.14 52.97,236.1 53.05,236.05C54.52,235.2 55.96,234.33 57.39,233.43C57.95,233.08 61.52,231.27 61.55,230.71ZM249.39,104.06C248.77,108.22 247.88,112.35 246.76,116.41C245.73,120.12 243.57,124.07 243.01,127.8C247.68,126.54 252.07,121.78 254.45,117.77C255.6,115.83 256.49,113.63 256.62,111.41C256.67,110.54 256.6,109.66 256.38,108.8C255.61,105.76 252.42,103.22 249.39,104.06ZM129.2,101.11C136.86,94.18 145.94,88.81 155.71,85.45C155.57,83.13 155.52,80.8 155.56,78.48C151.85,79.15 148.22,80.39 145.04,82.42C144.36,82.85 143.11,84.05 142.25,83.63C141.46,83.23 141.51,81.88 141.84,81.23C142.25,80.41 143.05,79.88 143.84,79.41C147.49,77.23 151.53,75.65 155.7,74.81C156.48,61.57 160.27,48.5 166.79,36.93C167.48,35.72 168.52,34.36 169.89,34.54C171.86,34.8 171.98,37.57 171.57,39.51C169.11,51.02 167.07,62.94 168.13,74.57C168.89,74.72 169.64,74.96 170.16,75.52C170.8,76.18 170.85,77.45 170.05,77.91C169.65,78.14 169.15,78.11 168.68,78.07C168.63,78.06 168.58,78.06 168.53,78.06C168.79,79.81 169.12,81.56 169.54,83.3C174.23,83.09 178.93,82.88 183.62,82.67L184.99,67.89C185.09,66.77 185.31,65.48 186.29,64.94C187.29,64.39 188.61,64.99 189.23,65.94C189.86,66.89 189.97,68.08 190.07,69.21L191.25,82.71C195.95,82.94 200.64,83.17 205.32,83.4C205.74,81.68 206.07,79.95 206.33,78.22C206.07,78.2 205.82,78.17 205.63,78.09C204.71,77.7 204.59,76.39 205.16,75.68C205.55,75.18 206.13,74.92 206.74,74.74C207.8,63.08 205.76,51.14 203.3,39.59C202.89,37.66 203.02,34.89 204.98,34.63C206.36,34.45 207.39,35.81 208.08,37.02C214.57,48.53 218.35,61.52 219.16,74.7C221.53,75.15 223.86,75.83 226.12,76.7C227.14,77.09 228.15,77.53 229.14,78C230.5,78.65 231.84,79.37 232.9,80.43C233.4,80.93 233.85,81.54 233.89,82.24C233.93,82.94 233.41,83.7 232.71,83.7C232.28,83.69 231.91,83.42 231.56,83.17C227.96,80.6 223.68,79.1 219.32,78.39C219.36,80.77 219.32,83.15 219.17,85.53C228.92,88.91 237.98,94.27 245.65,101.17C253.3,94.86 257.59,85 258.21,75.1C258.82,65.2 256,55.29 251.35,46.52C248.67,41.46 245.32,36.75 241.47,32.51C234.59,24.92 226.09,18.82 216.74,14.64C212.07,12.55 207.18,10.93 202.18,9.86C199.67,9.33 197.14,8.93 194.6,8.68C187.06,7.91 179.54,8.23 172.09,9.9C152.14,14.37 134.07,27.37 124.11,45.29C119.18,54.15 116.14,64.23 116.63,74.36C116.81,77.93 117.45,81.49 118.55,84.89C120.58,91.16 124.16,96.9 129.2,101.11ZM211.23,74.13C212.3,74.07 213.38,74.07 214.45,74.13C214,66.87 212.63,59.67 210.32,52.77C211.5,59.82 211.8,67 211.23,74.13ZM164.55,52.68C162.22,59.63 160.85,66.88 160.42,74.18C161.5,74.11 162.58,74.09 163.66,74.13C163.08,66.98 163.37,59.76 164.55,52.68ZM132.07,127.81C130.39,123.77 128.99,119.63 127.86,115.41C127.29,113.3 126.8,111.18 126.38,109.04C125.95,106.93 126.63,103.39 123.61,103.84C120.98,104.22 118.88,106.71 118.39,109.22C117.77,112.36 119.02,115.58 120.75,118.26C122.79,121.42 125.56,124.11 128.77,126.09C129.82,126.74 130.93,127.32 132.07,127.81ZM189.86,167.66C193.49,167.49 197.14,166.85 200.76,165.69C213.13,161.71 223.51,152.7 230.63,141.83C237.74,130.96 241.78,118.31 244.02,105.52C236.59,99.4 228.09,94.58 219.02,91.36C217.89,90.96 216.71,90.55 215.86,89.7C214.32,88.13 214.42,85.64 214.53,83.46C214.62,81.61 214.63,79.75 214.6,77.9C213.35,77.84 212.09,77.84 210.84,77.86C210.47,80.85 209.95,83.82 209.27,86.76C209.11,87.45 208.91,88.18 208.35,88.62C207.77,89.08 206.95,89.07 206.2,89.05C202.62,88.92 185.92,90.55 187.88,83.72C186.96,86.94 184.03,88.33 180.94,88.5C176.94,88.71 172.89,89.01 168.89,89.03C166.81,89.05 165.86,87.89 165.44,86.02C164.84,83.32 164.37,80.59 164.03,77.85C162.78,77.83 161.54,77.86 160.29,77.93C160.27,79.71 160.28,81.48 160.37,83.26C160.47,85.08 160.59,87.04 159.64,88.6C158.58,90.36 156.46,91.12 154.53,91.84C146.57,94.77 139.05,98.93 132.33,104.13C129.96,105.95 131.43,108.58 132.05,111.05C132.82,114.1 133.64,117.14 134.57,120.15C136.41,126.17 138.66,132.08 141.63,137.64C142.66,139.57 143.77,141.45 144.98,143.27C154.88,158.12 172.13,168.48 189.86,167.66ZM202.35,171.27C193.21,175.41 182.3,175.43 173.14,171.33C173.12,175.69 173.09,180.05 173.06,184.41C173.05,187.23 173.68,188.82 176.27,190.02C178.79,191.19 181.48,191.96 184.25,192.3C189.66,192.95 195.3,191.97 200.09,189.34C200.8,188.95 201.53,188.49 201.89,187.76C202.17,187.18 202.19,186.52 202.19,185.88C202.21,183.8 202.23,181.72 202.26,179.65C202.29,176.86 202.32,174.06 202.34,171.27ZM211.03,184.9C210.04,181.27 208.7,177.74 207.04,174.36C207.59,175.5 207.01,178.4 207,179.7C206.99,181.52 206.82,183.43 207.02,185.24C208.27,185.34 209.69,184.86 211.03,184.9ZM247.56,206.58C246.12,198.5 241.85,190.62 237.64,183.92C235.47,180.09 232.94,176.46 229.75,173.41C226.1,169.93 220.37,167.97 217.37,163.88C214.68,165.67 211.85,167.26 208.89,168.66C210.07,170.26 211.13,171.93 212.01,173.72C216.18,182.41 218.41,192.3 217.02,201.92C215.98,209.41 211.15,215.78 205.66,220.71C201.82,224.83 197.02,227.8 192.87,231.57C187.54,236.02 184.2,238.99 184.54,246.54C184.91,248.19 185.63,249.71 186.52,251.15C187.72,247.34 191.58,243.85 194.65,241.4C200.58,236.88 208.01,234.92 214.93,232.44C222.04,230.28 229.11,228.03 235.9,225.02C240.68,223.12 245.61,220.09 247.51,215.07C248.18,212.3 247.91,209.38 247.56,206.58ZM370.22,198.45C364.92,197.54 354.02,203.03 350.74,207.2C348.75,209.19 346.43,206.81 347.27,204.52C348.68,201.13 351.09,198.24 352.75,194.96C356.63,188.1 361.23,181.68 365.84,175.3C363.07,175.4 360.54,176.77 358.29,178.29C353.08,181.68 349.46,186.81 346.39,192.11C345.21,194.05 343.44,195.55 342.05,197.28C342.36,194.94 342.14,192.45 343.05,190.2C344,187.88 345.14,185.63 346.5,183.52C346.52,183.24 346.58,182.95 346.62,182.7C346.76,181.62 346.96,180.54 347.19,179.48C348.28,174.16 351.53,169.63 353.04,164.45C346.9,163.85 340.31,176.68 338.46,181.68C337.75,183.58 337.05,185.5 336.43,187.43C335.97,188.97 335.25,190.57 333.74,191.34C333.66,191.39 333.59,191.4 333.52,191.4C332.94,191.4 332.44,189.95 332.38,189.46C332.17,188.24 332.44,187.11 332.72,185.93C332.77,185.73 332.82,185.53 332.86,185.34C332.86,185.25 332.84,185.16 332.83,185.07C332.03,177.48 332.2,169.86 331.97,162.26C330.41,161.21 329.29,163.59 328.4,164.58C324.43,170.71 325.09,178.39 323.54,185.27C322.4,190.74 321.48,196.28 319.85,201.62C319.1,203.92 318.5,206.43 316.72,208.18C314.09,210.64 310.27,208.35 306.17,206.05C302.35,203.93 298.29,201.79 294.72,203.49C295.61,206 297.77,207.75 299.56,209.61C301.91,212.11 304.54,214.31 306.82,216.86C308.76,219.4 315.12,227.09 313.65,230.98C316.54,232.79 319.38,234.67 322.32,236.35C326.04,238.49 329.88,240.41 333.75,242.28C333.78,241.78 333.88,241.29 334.02,240.91C334.8,237.93 337.29,235.85 339.58,233.97C341.86,231.92 343.93,229.6 345.98,227.3C350.4,221.8 353.72,215.28 358.2,209.76C361.78,205.57 366.46,202.48 370.22,198.45ZM200.46,117.97C200.89,117.79 201.25,117.46 201.6,117.15C204.63,114.4 208.07,111.77 212.13,111.25C214.76,110.91 217.46,111.5 219.82,112.71C222.18,113.91 224.21,115.71 225.89,117.77C226.26,118.22 226.62,118.7 227.13,119C227.9,119.46 228.95,119.41 229.66,118.87C230.39,118.34 230.74,117.35 230.52,116.48C230.41,116.03 230.16,115.63 229.89,115.24C229.86,115.18 229.81,115.13 229.77,115.07C226.17,110.14 220.39,106.71 214.29,106.48C208.19,106.24 201.94,109.45 199.04,114.83C198.41,116.01 198.23,118.9 200.46,117.97ZM200.46,117.97"/>
	<path fill="#ffffff" fill-rule="nonZero" d="M194.94,148.94C194.23,149.84 193.32,150.59 192.3,151.09C189.61,152.43 185.43,152.47 182.84,150.77C180.47,149.22 179.46,145.64 179.98,142.99C180.02,142.79 180.07,142.57 180.23,142.43C180.38,142.3 180.61,142.27 180.81,142.25C185.64,141.81 190.51,141.8 195.34,142.23C195.61,142.26 195.89,142.29 196.09,142.46C196.27,142.62 196.35,142.87 196.41,143.11C196.89,145.14 196.24,147.29 194.94,148.94ZM194.94,148.94"/>
	<group>
		<clip-path d="M141.03,37.3L145.29,37.3L145.29,40.95L141.03,40.95ZM141.03,37.3"/>
		<group>
			<clip-path d="M145.27,38.63C143.4,41.63 141.6,41.02 141.23,40.43C140.85,39.75 141.15,37.95 141.75,37.5C142.35,37.05 144.75,37.65 144.75,37.65"/>
			<path fill="#5b463a" fill-rule="nonZero" d="M138.23,34.5L148.36,34.5L148.36,44.32L138.23,44.32ZM138.23,34.5"/>
			<path fill="#5b463a" fill-rule="nonZero" d="M138.23,34.5L148.36,34.5L148.36,44.32L138.23,44.32ZM138.23,34.5"/>
		</group>
	</group>
	<group>
		<clip-path d="M143.84,47.16L148.14,47.16L148.14,50.77L143.84,50.77ZM143.84,47.16"/>
		<group>
			<clip-path d="M148.13,48.45C146.18,51.45 144.38,50.93 144,50.25C143.63,49.65 144,47.77 144.6,47.32C145.13,46.88 147.52,47.55 147.52,47.55"/>
			<path fill="#5b463a" fill-rule="nonZero" d="M141,44.32L151.13,44.32L151.13,54.15L141,54.15ZM141,44.32"/>
		</group>
	</group>
</svg>
