<svg xmlns="http://www.w3.org/2000/svg" viewBox="0 0 375 375" width="500" height="500">
<group>
		<clip-path d="M183.29,198.59L187.51,198.59L187.51,202.2L183.29,202.2ZM183.29,198.59"/>
		<group>
			<clip-path d="M187.5,199.88C185.63,202.88 183.82,202.35 183.45,201.68C183.07,201.07 183.45,199.2 183.98,198.75C184.57,198.3 186.98,198.98 186.98,198.98"/>
			<path fill="#1e1e1e" fill-rule="nonZero" d="M180.45,195.75L190.58,195.75L190.58,205.57L180.45,205.57ZM180.45,195.75"/>
		</group>
	</group>
	<path fill="#000000" fill-rule="evenOdd" d="M130.12,10.43C126.15,12.41 119.7,19.36 114.73,25.32C109.77,31.28 104.8,45.68 101.82,55.61C98.35,65.54 94.88,72.49 90.9,76.96C87.43,81.43 82.96,83.41 83.95,83.41C84.95,83.41 91.4,80.93 90.41,81.92C89.41,83.41 81.47,88.38 80.97,89.86C79.98,91.36 86.43,90.36 89.41,92.84C88.42,95.33 87.43,97.81 85.94,100.29C82.96,106.75 78.99,114.69 76.5,123.13C73.53,132.07 72.04,141.5 70.05,150.44C68.07,158.88 65.09,166.82 58.14,173.77C50.69,181.22 39.27,187.67 32.32,196.11C24.88,204.06 21.89,213.49 23.38,223.42C24.88,233.35 31.33,244.27 44.73,251.23C58.63,258.18 79.48,260.66 92.39,257.68C105.3,254.7 110.76,246.26 112.25,243.28C113.74,240.8 111.75,243.78 109.27,248.25C106.79,252.71 104.3,258.67 101.33,268.6C98.35,278.53 95.37,291.94 92.39,302.86C89.41,313.29 87.43,320.73 84.45,325.7C81.47,330.66 77.5,332.65 74.52,339.6C71.04,346.05 69.06,356.98 68.56,362.44C68.56,367.9 70.55,367.9 73.53,367.9C76.5,367.4 80.97,366.91 84.45,366.91C87.92,367.4 90.41,368.4 93.88,369.89C96.86,370.88 101.33,371.87 106.79,372.86C112.25,373.36 118.21,373.86 124.66,373.36C131.11,372.86 138.07,371.87 142.04,369.89C145.51,367.9 145.51,364.92 144.52,362.44C143.03,360.45 140.05,358.47 135.09,355.98C130.12,353.5 123.17,349.53 118.21,345.56C112.75,341.59 109.27,337.12 107.78,332.65C106.29,328.18 106.79,322.72 108.77,317.75C110.76,312.29 114.23,307.33 119.2,298.89C124.66,290.95 131.11,279.03 137.07,269.1C143.03,258.67 148.49,249.73 154.45,244.27C160.41,238.32 167.36,235.83 169.34,236.83C171.33,237.32 168.35,241.79 165.87,247.25C163.38,252.22 160.9,258.67 157.92,267.61C154.95,276.55 150.97,288.46 147.5,298.39C144.52,308.32 141.54,316.27 139.55,319.74C137.07,323.21 136.57,321.23 134.59,324.71C132.61,328.68 129.13,337.12 129.13,342.58C128.63,348.04 130.62,350.03 135.09,351.52C140.05,353.5 147.5,354.5 151.96,353.5C156.43,353 157.43,350.03 159.41,350.03C160.9,350.52 163.38,353.5 167.36,355.49C171.33,356.98 177.29,356.98 183.74,356.48C190.19,355.98 196.65,354.5 199.63,352.51C203.1,350.03 202.11,346.55 199.63,344.57C197.14,342.58 192.68,342.08 187.71,339.6C183.24,337.12 178.28,332.15 173.81,328.68C169.34,324.71 164.88,321.73 163.38,318.25C161.89,314.78 162.89,310.8 166.36,304.85C169.84,298.89 175.3,290.95 181.26,282.5C187.21,274.06 193.17,265.13 198.63,255.2C203.6,245.27 207.57,234.34 210.05,226.4C212.04,218.46 212.54,213 210.55,209.02C209.06,205.05 205.09,202.07 198.63,200.09C192.18,198.1 182.75,197.61 175.8,197.11C168.35,196.61 163.38,196.11 153.46,196.61C143.53,197.11 128.63,198.6 122.68,197.11C116.72,195.62 119.7,191.64 123.67,187.67C127.64,183.21 132.61,178.74 137.07,175.26C142.04,171.29 146.5,168.31 149.98,164.34C153.46,160.37 155.94,155.4 156.93,150.44C157.92,145.97 157.43,141 157.43,136.04C157.43,131.07 157.92,126.11 159.91,121.64C161.89,117.17 165.37,113.2 168.35,110.72C171.33,108.73 174.8,108.73 178.77,108.73C183.24,108.73 188.7,108.73 195.16,108.23C201.12,107.24 207.57,105.26 214.02,103.77C220.48,102.77 227.43,101.78 233.39,101.29C239.84,100.29 245.3,99.79 253.74,98.3C261.68,96.32 272.61,93.34 281.54,91.36C290.48,88.87 297.43,86.89 302.89,86.89C307.85,86.89 311.33,88.87 315.8,89.86C320.27,91.36 325.73,91.85 328.21,90.86C331.19,90.36 330.69,88.38 332.68,86.89C334.66,85.89 339.63,84.9 344.09,83.41C349.06,81.92 353.53,79.44 353.03,77.95C353.03,76.46 348.07,75.96 342.11,76.46C336.15,76.46 329.2,77.45 329.7,76.46C330.2,74.97 338.63,72.49 336.65,71.5C334.66,70.5 322.25,71.99 312.82,72.49C303.39,72.98 295.94,72.49 288.49,71.99C281.54,71.5 274.59,70 268.63,70C262.68,69.51 257.71,70.5 249.77,70.5C241.33,71 230.41,70.5 221.47,70.5C213.03,70.5 207.07,71 201.61,71.99C196.15,73.48 191.68,75.96 185.73,77.95C179.77,79.44 172.32,79.93 166.36,80.43C160.41,80.43 155.44,80.43 153.95,78.94C151.96,77.45 152.96,74.47 154.45,73.48C156.43,71.99 159.41,72.49 160.9,71.5C162.89,71 163.88,69.51 165.37,67.52C166.36,67.03 175.3,48.16 174.31,43.69C173.81,43.69 195.16,0 147.5,1.98C141.04,2.48 133.1,6.95 130.12,10.43C127.14,13.41 131.11,7.95 130.12,10.43ZM130.12,10.43"/>
	<group>
		<clip-path d="M20.61,0L354.36,0L354.36,375L20.61,375ZM20.61,0"/>
		<path fill="#00000000" d="M130.12,10.43C126.15,12.41 119.7,19.36 114.73,25.32C109.77,31.28 104.8,45.68 101.82,55.61C98.35,65.54 94.88,72.49 90.9,76.96C87.43,81.43 82.96,83.41 83.95,83.41C84.95,83.41 91.4,80.93 90.41,81.92C89.41,83.41 81.47,88.37 80.97,89.86C79.98,91.36 86.43,90.36 89.41,92.84C88.42,95.33 87.43,97.81 85.94,100.29C82.96,106.75 78.99,114.69 76.5,123.13C73.53,132.07 72.04,141.5 70.05,150.44C68.07,158.88 65.09,166.82 58.14,173.77C50.69,181.22 39.27,187.67 32.32,196.11C24.88,204.06 21.89,213.49 23.38,223.42C24.88,233.35 31.33,244.27 44.73,251.23C58.63,258.18 79.48,260.66 92.39,257.68C105.3,254.7 110.76,246.26 112.25,243.28C113.74,240.8 111.75,243.78 109.27,248.25C106.79,252.71 104.3,258.67 101.33,268.6C98.35,278.53 95.37,291.94 92.39,302.86C89.41,313.28 87.43,320.73 84.45,325.7C81.47,330.66 77.5,332.65 74.52,339.6C71.04,346.05 69.06,356.98 68.56,362.44C68.56,367.9 70.55,367.9 73.53,367.9C76.5,367.4 80.97,366.91 84.45,366.91C87.92,367.4 90.41,368.4 93.88,369.89C96.86,370.88 101.33,371.87 106.79,372.86C112.25,373.36 118.21,373.86 124.66,373.36C131.11,372.86 138.07,371.87 142.04,369.89C145.51,367.9 145.51,364.92 144.52,362.44C143.03,360.45 140.05,358.47 135.09,355.98C130.12,353.5 123.17,349.53 118.21,345.56C112.75,341.59 109.27,337.12 107.78,332.65C106.29,328.18 106.79,322.72 108.77,317.75C110.76,312.29 114.23,307.33 119.2,298.89C124.66,290.95 131.11,279.03 137.07,269.1C143.03,258.67 148.49,249.73 154.45,244.27C160.41,238.32 167.36,235.83 169.34,236.83C171.33,237.32 168.35,241.79 165.87,247.25C163.38,252.22 160.9,258.67 157.92,267.61C154.95,276.55 150.97,288.46 147.5,298.39C144.52,308.32 141.54,316.27 139.55,319.74C137.07,323.21 136.57,321.23 134.59,324.71C132.61,328.68 129.13,337.12 129.13,342.58C128.63,348.04 130.62,350.03 135.09,351.52C140.05,353.5 147.5,354.5 151.96,353.5C156.43,353 157.43,350.03 159.41,350.03C160.9,350.52 163.38,353.5 167.36,355.49C171.33,356.98 177.29,356.98 183.74,356.48C190.19,355.98 196.65,354.5 199.63,352.51C203.1,350.03 202.11,346.55 199.63,344.57C197.14,342.58 192.68,342.08 187.71,339.6C183.24,337.12 178.28,332.15 173.81,328.68C169.34,324.71 164.88,321.73 163.38,318.25C161.89,314.78 162.89,310.8 166.36,304.85C169.84,298.89 175.3,290.95 181.26,282.5C187.21,274.06 193.17,265.12 198.63,255.2C203.6,245.27 207.57,234.34 210.05,226.4C212.04,218.46 212.54,213 210.55,209.02C209.06,205.05 205.09,202.07 198.63,200.09C192.18,198.1 182.75,197.61 175.8,197.11C168.35,196.61 163.38,196.11 153.46,196.61C143.53,197.11 128.63,198.6 122.68,197.11C116.72,195.62 119.7,191.64 123.67,187.67C127.64,183.21 132.61,178.74 137.07,175.26C142.04,171.29 146.5,168.31 149.98,164.34C153.46,160.37 155.94,155.4 156.93,150.44C157.92,145.97 157.43,141 157.43,136.04C157.43,131.07 157.92,126.11 159.91,121.64C161.89,117.17 165.37,113.2 168.35,110.72C171.33,108.73 174.8,108.73 178.77,108.73C183.24,108.73 188.7,108.73 195.16,108.23C201.12,107.24 207.57,105.26 214.02,103.77C220.48,102.77 227.43,101.78 233.39,101.29C239.84,100.29 245.3,99.79 253.74,98.3C261.68,96.32 272.61,93.34 281.54,91.36C290.48,88.87 297.43,86.89 302.89,86.89C307.85,86.89 311.33,88.87 315.8,89.86C320.27,91.36 325.73,91.85 328.21,90.86C331.19,90.36 330.69,88.37 332.68,86.89C334.66,85.89 339.63,84.9 344.09,83.41C349.06,81.92 353.53,79.44 353.03,77.95C353.03,76.46 348.07,75.96 342.11,76.46C336.15,76.46 329.2,77.45 329.7,76.46C330.2,74.97 338.63,72.49 336.65,71.5C334.66,70.5 322.25,71.99 312.82,72.49C303.39,72.98 295.94,72.49 288.49,71.99C281.54,71.5 274.59,70 268.63,70C262.68,69.51 257.71,70.5 249.77,70.5C241.33,71 230.41,70.5 221.47,70.5C213.03,70.5 207.07,71 201.61,71.99C196.15,73.48 191.68,75.96 185.73,77.95C179.77,79.44 172.32,79.93 166.36,80.43C160.41,80.43 155.44,80.43 153.95,78.94C151.96,77.45 152.96,74.47 154.45,73.48C156.43,71.99 159.41,72.49 160.9,71.5C162.89,71 163.88,69.51 165.37,67.52C166.36,67.03 175.3,48.16 174.31,43.69C173.81,43.69 195.16,0 147.5,1.98C141.04,2.48 133.1,6.95 130.12,10.43C127.14,13.41 131.11,7.95 130.12,10.43ZM130.12,10.43" stroke="#000000" strokeLineCap="butt" strokeLineJoin="miter" stroke-width="2.29"/>
	</group>
</svg>
