<svg xmlns="http://www.w3.org/2000/svg" viewBox="0 0 375 375" width="500" height="500">
    <g>
        <clipPath id="clip1">
            <path d="M183.29,198.59L187.51,198.59L187.51,202.2L183.29,202.2Z"/>
        </clipPath>
        <g clip-path="url(#clip1)">
            <clipPath id="clip2">
                <path d="M187.5,199.88C185.63,202.88 183.82,202.35 183.45,201.68C183.07,201.07 183.45,199.2 183.98,198.75C184.57,198.3 186.98,198.98 186.98,198.98"/>
            </clipPath>
            <path d="M180.45,195.75L190.58,195.75L190.58,205.57L180.45,205.57Z" fill="#1e1e1e" fill-rule="nonzero" clip-path="url(#clip2)"/>
        </g>
    </g>

    <path d="M368.11,350.92C365.4,349.54 362.38,348.77 359.46,347.82C351.56,345.24 343.64,342.71 335.73,340.17C330.32,338.43 326.07,335.38 323.7,329.99C323.06,328.53 321.8,327.34 321.08,325.88C319.98,323.66 318.72,321.42 318.2,319.04C316.49,311.21 318.84,303.59 319.81,295.9C321.6,281.72 323.65,267.57 325.14,253.36C325.75,247.61 325.85,241.89 327.5,236.23C329.03,230.95 328.66,225.5 326.11,220.34C324.3,216.67 322.88,212.82 321.26,209.02C325.28,207.81 325.28,207.81 327.16,204.08C325.3,202.46 322.95,201.16 321.66,199.18C314.45,187.99 305.61,184.04 292.74,186.62C292.52,186.67 292.23,186.39 291.71,186.13C293.02,185.14 294.2,184.25 295.39,183.36C279.69,165.18 262.28,149.3 245.04,133.26C241.45,129.93 237.79,126.84 236.57,121.66C233.05,106.66 223.38,97.56 208.71,93.48C206.97,92.99 205.25,92.41 203.56,91.8C202.25,91.32 200.99,90.71 199.32,90.01C200.1,87.7 200.85,85.7 201.43,83.65C202.53,79.63 201.93,78.41 198.57,75.91C196.38,74.27 194.41,72.32 192.34,70.49L193.04,69.65C194.46,70.63 195.93,71.54 197.29,72.6C202.07,76.33 207.13,75.59 212.14,73.35C213.1,72.93 214.14,71.56 214.24,70.54C214.71,65.7 215.38,60.78 214.93,55.98C214.65,52.93 215.66,51.34 218.26,49.99C216.86,47.38 215.5,45.23 214.53,42.93C213.71,40.98 212.48,38.69 212.88,36.86C213.77,32.79 212.08,29.85 210.05,26.8C208.96,25.18 207.99,23.47 207.22,22.22C209.21,17.91 210.97,14.09 212.79,10.16C209.79,8.41 207.28,6.54 204.49,5.37C196.91,2.2 188.99,0 180.77,2.05C167.93,5.23 157.67,19.77 158.29,33.09C158.58,39.38 161,45.04 163.14,50.8C166.49,59.81 170.13,68.8 166.07,78.75C173.34,83.13 180.23,87.27 187.11,91.41C186.92,91.77 186.74,92.12 186.55,92.48C179.38,88.98 172.21,85.48 165.32,82.13C161.62,86.32 158.07,90.16 154.72,94.18C148.18,102.07 144.46,110.78 147.4,121.29C148.72,125.99 149.54,130.86 151.11,135.46C158.39,156.68 165.9,177.83 173.23,199.04C173.79,200.66 173.95,202.51 173.85,204.23C173.42,211.44 172.67,218.63 172.37,225.84C172.25,228.98 171.83,231.74 170.09,234.52C165.76,241.46 163.96,249.11 164.71,257.36C165.34,264.45 167.44,271.1 170.55,277.68C158.9,288.14 151.19,301.22 143.86,314.6C142.38,317.29 140.81,319.95 139.2,322.57C136.27,327.36 135.93,327.52 130.43,325.91C128,325.2 125.52,324.46 123.33,323.23C110.81,316.21 97.27,314.93 83.32,315.98C76.64,316.48 69.96,317.03 63.31,317.85C54.63,318.9 46.01,319.36 37.36,317.72C36.2,317.5 34.96,317.69 34,317.69C33.07,320.05 32.63,322.1 31.54,323.69C28.83,327.62 27.32,331.58 29.84,336.29C25.1,331.96 24.69,330 27.21,325.14C28.61,322.46 30.5,319.94 30.04,316.47C24.24,313.88 18.59,313.01 12.78,316.1C11.93,316.55 10.76,316.86 9.88,316.65C5.69,315.68 3.51,316.34 2.83,320.3C2.14,324.29 1.92,328.68 2.83,332.58C5.73,345.05 9.22,357.39 12.56,370.05L39.97,370.05L39.97,366.4C37.71,364.73 35.84,362.46 33.86,360.4C33.56,360.09 33.5,359.32 33.65,358.85C35.27,353.68 36.88,348.75 41.52,345.03C48.83,339.16 56.69,338.18 65.47,340.06C88.64,345.01 111.84,349.78 135.02,354.69C141.77,356.13 145.02,356.36 150.73,355.02C148.78,353.28 147.34,351.98 145.22,350.09C149.03,350.26 151.02,352.6 154.05,353.55C154.95,352.92 156.18,352.21 157.23,351.29C166.32,343.26 175.67,335.48 184.36,327.04C189.77,321.78 194.38,315.64 199.01,309.64C202.29,305.4 205,300.72 208.34,295.68C203.02,293.63 198.39,291.85 193.77,290.06C193.86,289.71 193.94,289.37 194.03,289.01C195.39,289.23 196.78,289.35 198.11,289.71C204.38,291.44 210.61,293.36 216.91,295.01C222.89,296.57 224.18,296.05 226.43,290.3C227.83,286.75 230.03,284.89 233.59,283.72C239.25,281.87 244.75,279.53 250.27,277.29C258.09,274.11 265.02,269.62 270.68,263.25C272,261.77 273.46,260.39 274.94,259.06C281.55,253.19 288.95,248.12 293.48,240.13C293.78,240.32 294.08,240.53 294.38,240.72C293.75,242.08 293.27,243.54 292.45,244.77C285.98,254.48 285.75,265.23 287.41,276.16C288.93,286.18 291.27,296.07 292.47,306.12C293.52,314.89 293.75,323.78 293.86,332.63C293.93,338.94 299.2,343.48 305.28,341.75C306.82,341.32 308.33,340.79 310.22,340.18C306.5,344.54 302.15,346.72 299.13,344.97C295.63,342.94 292.66,340 289.29,337.3C286.36,340.39 285.78,344.48 285.29,348.57C284.82,352.41 284.43,356.27 283.96,360.63L366.29,360.63C367.19,360.13 368.06,359.53 368.88,358.8C372.56,355.52 372.44,353.15 368.11,350.92Z" fill="#000000" fill-rule="nonzero"/>
</svg>
