<svg xmlns="http://www.w3.org/2000/svg" viewBox="0 0 375 375" width="500" height="500">
<group>
		<clip-path d="M183.29,198.59L187.51,198.59L187.51,202.2L183.29,202.2ZM183.29,198.59"/>
		<group>
			<clip-path d="M187.5,199.88C185.63,202.88 183.82,202.35 183.45,201.68C183.07,201.07 183.45,199.2 183.98,198.75C184.57,198.3 186.98,198.98 186.98,198.98"/>
			<path fill="#1e1e1e" fill-rule="nonZero" d="M180.45,195.75L190.58,195.75L190.58,205.57L180.45,205.57ZM180.45,195.75"/>
		</group>
	</group>
	<path fill="#000000" fill-rule="nonZero" d="M160.14,71.72C164.48,76.31 168.82,80.9 173.16,85.49C173.71,86.07 174.29,86.7 174.45,87.5C174.6,88.22 174.36,88.96 174.37,89.7C174.4,91.38 175.64,92.75 176.81,93.95C178.27,95.45 179.73,96.95 181.19,98.45C182.12,99.4 183.08,100.41 183.45,101.68C183.96,103.41 183.29,105.27 183.51,107.05C183.66,108.29 184.22,109.43 184.75,110.56C187.85,117.12 190.18,124.04 191.68,131.13C192.04,132.82 192.32,134.7 191.41,136.17C190.6,137.48 189.05,138.11 187.82,139.04C186.59,139.97 185.6,141.73 186.47,143C186.86,143.57 187.52,143.89 188.16,144.15C194.88,146.98 202.22,147.95 209.46,148.88C210.74,149.05 212.04,149.21 213.32,149.07C215.58,148.81 217.7,147.54 218.99,145.67C224.29,137.98 231.85,132.08 241,130.21C252.48,127.86 264.61,132.07 276.02,129.41C280.83,123.49 287.43,118.34 294.6,115.74C299.62,113.92 305.23,113.08 310.27,114.84C311.5,115.27 312.7,115.85 314,115.91C315.54,115.99 317.01,115.33 318.41,114.68C320.01,113.95 321.6,113.21 323.19,112.48C321.14,102.61 318.99,91.88 319.33,81.8C319.42,79.25 319.65,76.69 319.54,74.14C319.48,72.73 319.31,71.32 319.11,69.93C318.26,63.99 316.75,58.15 314.64,52.54C312.3,46.34 309.23,40.45 306.16,34.58C305.45,33.22 303.06,32.98 301.53,33.07C300,33.15 298.5,33.59 296.97,33.72C290.96,34.25 285.48,30.14 279.48,29.63C276.8,29.4 274.12,29.89 271.47,30.37C270.89,30.47 270.27,30.57 269.73,30.36C269.11,30.11 268.72,29.53 268.38,28.96C267.7,27.82 267.11,26.63 266.62,25.39C266.3,24.6 266.05,23.63 266.56,22.94C266.81,22.61 267.21,22.4 267.46,22.07C268.13,21.2 267.52,19.94 267.7,18.86C267.8,18.2 268.19,17.64 268.56,17.09C270.68,13.88 272.38,10.38 273.57,6.72C274.07,5.18 274.52,3.56 275.59,2.34C277.23,0.45 279.98,-0.05 282.49,0C287.68,0.1 292.82,2.05 296.76,5.42C297.82,6.32 298.79,7.32 299.85,8.24C300.75,9.03 301.71,9.75 302.67,10.48C304.95,12.2 307.22,13.91 309.5,15.63C311.23,16.93 312.96,18.24 314.69,19.55C316.89,21.2 319.09,22.86 321.49,24.2C325.75,26.58 326.61,31.77 329.07,35.97C330.58,38.54 332.42,40.31 334.16,42.72C337.38,47.21 340.61,51.69 343.83,56.17C345.97,59.15 348.11,62.12 350.14,65.18C361.03,81.6 368.49,100.28 371.91,119.69C372.33,122.04 371.15,124.34 369.81,126.32C368.47,128.31 366.65,129.93 364.89,131.56C355.94,139.89 348.04,149.3 339.12,157.67C330.2,166.05 320.02,173.51 308.25,176.86C297.73,179.86 285.94,179.63 276.9,185.78C265.03,193.85 269.11,213.16 263.77,226.48C261.41,232.35 258.14,237.86 256.27,243.91C252.6,255.76 250.09,268.05 244.9,279.32C243,283.46 240.8,287.52 239.58,291.91C237.18,300.54 238.7,309.76 240.88,318.45C243.05,327.13 245.89,335.78 246.11,344.74C246.37,355.15 251.85,364.93 254.71,374.95L118.76,374.95C121.11,367.71 123.68,361.2 126.8,354.27C127.71,352.23 128.67,350.18 129.12,347.98C129.54,345.93 129.5,343.8 129.64,341.7C130.36,330.71 135.9,320.14 134.76,309.18C134.34,305.14 135,301.14 133.67,297.3C132.33,293.46 130.3,289.91 128.27,286.38C123.21,277.58 118.07,268.75 111.57,260.95C109.84,263.25 107.82,265.57 106.09,267.86C104.35,270.17 102.61,272.48 100.77,274.71C93.33,283.7 84.17,291.34 73.67,296.42C67.62,299.35 61.14,301.43 55.41,304.93C52.69,306.59 50.13,308.58 47.19,309.82C43.86,311.22 40.2,311.6 36.59,311.71C30.92,311.88 24.95,311.33 20.23,308.2C18.37,306.97 17.57,304.73 16.57,302.74C15.25,300.14 13.95,297.53 12.63,294.93C11.41,292.5 10.18,290.06 9.16,287.54C6.16,280.07 5.03,272 4.26,264C3.63,257.5 3.22,250.99 3.04,244.47C2.79,236.2 6.3,227.83 6.96,219.59C7.49,212.95 6.46,206.09 8.47,199.74C10.07,194.7 12.01,189.33 14.69,184.78C20.32,175.22 25.95,165.67 31.57,156.11C31.97,155.43 32.39,154.73 33,154.22C34.27,153.15 36.17,153.14 37.75,153.67C39.34,154.19 40.72,155.17 42.2,155.95C45.88,157.88 50.14,158.58 53.69,160.75C54.25,161.09 54.82,161.49 55.14,162.08C55.48,162.7 55.49,163.45 55.68,164.13C56.08,165.59 57.23,166.71 58.13,167.93C59.02,169.16 59.68,170.82 58.97,172.16C58.68,172.71 58.19,173.13 57.7,173.52C55.49,175.27 52.99,176.75 51.29,179C50.39,180.2 49.75,181.58 48.89,182.81C44.41,189.2 34.66,190.57 30.96,197.45C29.56,200.05 29.26,203.11 29.21,206.07C29.11,212.13 29.96,218.19 31.71,223.98C33.04,228.36 35.91,231.71 38.29,235.61C39.43,237.48 40.61,239.34 41.96,241.07C43.01,242.41 44.16,243.66 45.08,245.08C46.24,246.87 47.01,248.88 47.75,250.87C49.15,248.19 49.9,245.13 50.84,242.25C52.23,237.98 55.04,234.27 58.35,231.23C61.66,228.18 65.46,225.74 69.26,223.33C69.08,217.38 71.94,211.8 74.6,206.48C76.27,203.16 78.09,199.9 80.3,196.91C89.9,183.89 107.05,176.9 123.02,179.48C124.32,179.69 125.87,179.04 126.8,178.11C130.4,174.56 133.99,171.02 137.59,167.47C138.76,166.31 139.95,165.13 140.79,163.71C142.58,160.7 142.59,156.88 141.6,153.52C140.61,150.16 138.71,147.15 136.8,144.21C135.53,142.27 134.22,140.3 132.38,138.89C131.17,137.96 129.78,137.31 128.46,136.53C123.39,133.51 119.5,128.49 113.93,126.52C106.36,123.84 100.55,116.41 97.76,108.89C96.65,105.89 96.21,102.65 96.48,99.46C96.66,97.25 97.19,95.07 97.71,92.91C98.44,89.88 99.17,86.84 99.91,83.8C100.18,82.64 100.47,81.46 100.99,80.39C102.06,78.18 104.04,76.57 105.97,75.04C110.2,71.69 114.5,68.36 119.23,65.76C123.96,63.15 129.18,61.27 134.57,61.02C137.21,60.9 139.86,61.16 142.48,61.53C145.82,62 149.18,62.65 152.24,64.08C155.29,65.51 157.83,69.27 160.14,71.72ZM160.14,71.72"/>
</svg>
