<svg xmlns="http://www.w3.org/2000/svg" viewBox="0 0 375 375" width="500" height="500">
	<!-- Clip and Group Paths -->
	<g>
		<clipPath id="clip0">
			<path d="M183.29,198.59L187.51,198.59L187.51,202.2L183.29,202.2Z" />
		</clipPath>
		<g clip-path="url(#clip0)">
			<clipPath id="clip1">
				<path d="M187.5,199.88C185.63,202.88 183.82,202.35 183.45,201.68C183.07,201.07 183.45,199.2 183.98,198.75C184.57,198.3 186.98,198.98 186.98,198.98Z" />
			</clipPath>
			<path fill="#1e1e1e" d="M180.45,195.75H190.58V205.57H180.45Z" />
		</g>
	</g>

	<!-- Main Clip and Black Fill -->
	<g>
		<clipPath id="clip2">
			<path d="M30,30H340V365.45H30Z" />
		</clipPath>
		<path fill="#000000" fill-rule="evenodd" d="M126.93,365.49V209.17C117.85,219.54 109.36,228.22 101.3,235.35C93.19,242.37 86.98,248.23 78.64,251.59C70,254.94 57.95,258.14 50.7,255.09C43.44,251.78 38.81,245.61 35.61,232.42C32.44,219 31.82,192.78 31.52,176.04C31.01,159.2 27.77,141.34 33.25,133.05C38.77,124.8 58.03,123.26 64.09,127.23C69.96,131.24 67.64,144.39 68.76,156.88C69.77,169.41 70.34,184.03 70.5,201.61C76.86,195.05 83.5,188.61 90.84,181.87C98.17,175.08 104.54,165.63 114.11,161.55C123.57,157.46 135.45,156.15 147.27,157.46C159.04,158.77 171.73,168.83 183.89,169.07C195.93,169.03 208.13,161.39 218.82,158.04C229.25,154.72 235.61,162.43 246.73,149.32C257.88,135.98 274.44,98.27 285.09,79.03C295.52,59.63 300.73,41.24 309.52,34.26C318.29,27.43 333.65,31.33 337.47,37.77C341.06,44.02 342.14,49.49 331.64,72.05C320.95,94.76 288.99,149.98 274.63,172.57C260.24,194.86 250.93,205.85 246.15,205.7V365.48H126.93Z" />
	</g>

	<!-- Other Elements -->
	<path fill="#000000" fill-rule="evenodd" d="M190.89,51.62C216.56,51.62 237.4,72.45 237.4,98.12C237.4,123.79 216.56,144.63 190.89,144.63C165.21,144.63 144.38,123.79 144.38,98.12C144.38,72.45 165.21,51.62 190.89,51.62Z" />
	<path fill="#000000" fill-rule="evenodd" d="M6.5,139.45H82.69V147.59H6.5Z" />
	<path fill="#000000" fill-rule="evenodd" d="M85.82,116.2C80.57,116.2 76.29,120.44 76.29,125.68V160.16C76.29,165.4 80.57,169.68 85.82,169.68H90.07C95.31,169.68 99.56,165.4 99.56,160.16V125.68C99.56,120.44 95.31,116.2 90.07,116.2H85.82Z" />
	<path fill="#000000" fill-rule="evenodd" d="M9.63,116.2C4.38,116.2 0.09,120.44 0.09,125.68V160.16C0.09,165.4 4.38,169.68 9.63,169.68H13.87C19.12,169.68 23.37,165.4 23.37,160.16V125.68C23.37,120.44 19.12,116.2 13.87,116.2H9.63Z" />
	<path fill="#000000" fill-rule="evenodd" d="M281.89,31.36L278.65,38.84L348.63,68.96L351.87,61.48Z" />
	<path fill="#000000" fill-rule="evenodd" d="M363.91,41.35C359.08,39.31 353.49,41.51 351.4,46.32C346.89,56.89 342.33,67.42 337.78,77.98C335.7,82.8 337.93,88.39 342.76,90.48C344.03,91.02 345.34,91.59 346.66,92.14C351.48,94.22 357.08,91.98 359.12,87.16C363.68,76.63 368.23,66.07 372.79,55.54C374.87,50.72 372.63,45.13 367.81,43.05C366.53,42.47 365.22,41.93 363.91,41.35Z" />
	<path fill="#000000" fill-rule="evenodd" d="M293.93,11.27C289.11,9.19 283.51,11.39 281.43,16.21C276.91,26.78 272.36,37.3 267.8,47.87C265.71,52.69 267.95,58.28 272.78,60.36C274.05,60.9 275.36,61.48 276.68,62.02C281.5,64.1 287.1,61.87 289.14,57.09C293.7,46.52 298.25,35.95 302.81,25.43C304.89,20.61 302.65,15.02 297.83,12.93C296.55,12.39 295.24,11.82 293.93,11.27Z" />
</svg>
