<svg xmlns="http://www.w3.org/2000/svg" width="500" height="500" viewBox="0 0 375 375">
    <g>
        <clipPath id="clip0">
            <path d="M75,1L302.39,1L302.39,374L75,374Z"/>
        </clipPath>
        <g clip-path="url(#clip0)">
            <path fill="#000000" d="M246.63,164.51C240.82,164.51 235.01,163.09 229.82,160.39C213.36,151.85 206.16,132.43 212.42,115.48C212.75,104.88 214.55,90.23 220.44,74.73C227.09,57.25 238.72,38.69 259.67,22.64C264.85,18.68 265.84,11.28 261.87,6.1C257.9,0.93 250.49,-0.06 245.3,3.91C220.59,22.77 206.24,45.45 198.34,66.38C190.41,87.32 188.73,106.5 188.72,119.32C188.72,124.54 189,128.7 189.28,131.54L77.82,345.72C73.17,354.66 76.65,365.67 85.6,370.32C94.55,374.96 105.57,371.49 110.23,362.55L165.27,256.78C166.45,260.68 168.95,264.2 172.62,266.61L220.31,298L231.23,358.25C232.82,366.99 240.43,373.11 249.02,373.11C250.09,373.11 251.17,373.02 252.26,372.82C262.09,371.04 268.62,361.63 266.84,351.81L254.54,283.95C253.65,279.07 250.84,274.82 246.69,272.08L216.52,252.22L256.03,176.29C258.89,178.21 262.03,180.52 265.02,183.09C269.03,186.5 272.72,190.37 275.13,194.02C277.59,197.7 278.61,200.88 278.59,203.34C278.57,204.88 278.28,206.34 277.29,208.28C275.82,211.13 272.4,215.16 265.39,219.65C258.43,224.14 248.04,228.98 233.57,233.66C227.36,235.67 223.97,242.33 225.98,248.53C227.6,253.52 232.23,256.69 237.22,256.69C238.43,256.69 239.66,256.5 240.87,256.11C261.93,249.25 276.52,241.86 286.63,233.27C291.66,228.97 295.58,224.29 298.25,219.19C300.92,214.1 302.23,208.59 302.22,203.34C302.19,194.08 298.5,186.17 293.97,179.71C287.09,170.02 277.93,162.77 270.44,157.53C270.03,157.24 269.62,156.96 269.22,156.69C262.9,161.67 255,164.51 246.63,164.51Z"/>
        </g>
    </g>
    <path fill="#000000" d="M261.98,98.61C262.94,99.11 263.88,99.66 264.79,100.25C265.7,100.85 266.59,101.48 267.43,102.16C281.77,113.88 283.79,136.84 272.58,151.26C259.46,168.11 234.01,171.02 217.52,144.05C208.84,130.4 213.41,109.03 230.65,98.97C240.5,93.06 254.59,93.66 261.98,98.61Z"/>
    <g>
        <clipPath id="clip1">
            <path d="M183.29,198.59L187.51,198.59L187.51,202.2L183.29,202.2Z"/>
        </clipPath>
        <g clip-path="url(#clip1)">
            <path fill="#1e1e1e" d="M180.45,195.75L190.58,195.75L190.58,205.57L180.45,205.57Z"/>
        </g>
    </g>
</svg>
