<svg id="vector" xmlns="http://www.w3.org/2000/svg" width="500" height="500" viewBox="0 0 375 375"><defs><clipPath id="clip_path_0"><path d="M183.29,198.59L187.51,198.59L187.51,202.2L183.29,202.2ZM183.29,198.59"/></clipPath><clipPath id="clip_path_1"><path d="M2,46L375,46L375,329.78L2,329.78ZM2,46"/></clipPath></defs><g id="g_0"><g clip-path="url(#clip_path_0)"><path fill="#1e1e1e" fill-rule="nonzero" d="M180.45,195.75L190.58,195.75L190.58,205.57L180.45,205.57ZM180.45,195.75"/></g></g><g id="g_1"><path fill="#000000" fill-rule="nonzero" d="M184.8,47.07C187.24,45.74 191.04,45.56 193.93,48.61C197.32,51.75 202.08,52.52 204.84,58.57C207.7,64.99 209.99,79.7 209.98,84.8C209.41,94.17 202.69,88.73 202.76,113.69C202.96,120.02 209.78,121.73 216.06,125.45C228.27,133.07 235.57,125.38 245.13,136.73C245.92,137.68 246.57,138.75 247.39,139.69C248.15,140.59 248.96,141.45 249.73,142.35C251.41,144.29 253.13,150.77 256.38,156.36C257.63,158.43 259.26,160.21 260.74,162.11C264.53,166.84 267.61,176.92 273.46,183.38C275.57,185.5 275.85,185.74 278.68,185.63C284.99,185.03 284.08,184.62 306.27,172.73C313.77,168.79 320.35,164.77 328.79,156.37C329.98,155.25 329.46,154.11 329.72,153.22C330.32,150.15 332.19,150.49 336.42,142.81C341.44,133.89 341.36,133.88 341.47,133.27C341.57,132.48 341.42,130.38 343.75,130.15C349.74,129.41 348.36,135.16 352.39,137.62C357.18,141.01 356.47,144.64 356.56,145.98C356.66,146.88 357.26,148.29 358.09,148.56C358.77,148.69 359.77,147.93 360.69,147.5C363.39,146.32 363.5,144.56 363.46,141.91C363.28,139.82 363.43,138.75 365.88,133.5C366.11,133 366.91,132.91 367.21,133C368.29,133.72 368.08,134.16 368.1,144.15C368.14,145.32 367.84,146.48 367.96,147.66C368.09,148.25 368.53,148.7 368.82,149.23C369.27,148.98 369.78,148.81 370.16,148.45C370.39,148.04 370.5,147.56 370.88,147.25C371.61,146.43 372.99,146.98 374.45,147.05C374.78,147.59 374.95,148.22 375.02,148.84C374.77,149.2 366.34,155.1 365.75,155.43C363.14,156.89 347.15,161.23 340.74,164.18C331.98,168.2 309.08,191.83 287.7,206.34C285.77,207.63 283.38,207.95 281.45,209.23C280.42,209.86 275.65,217.8 260.24,205.02C244.5,192.3 239.45,183.88 234.8,176.18C233.96,175.04 234.27,173.54 233.78,172.29C233.44,171.79 232.85,171.54 232.32,171.3C228.41,176.86 230.38,173.86 225.44,183.11C225.35,183.28 225.18,183.38 225.04,183.49C222.63,191.31 222.75,187.66 222.07,196.36C221.97,218.68 222.47,214.11 226.39,228.77C228.57,236.13 228.71,241.18 231.24,240.83C235.16,240.16 237.73,241.31 241.66,238.46C243.36,237.33 245.38,236.87 247.29,236.22C251.1,234.99 255.82,231.68 257.59,231.07C271.96,226.79 271.39,226.9 271.39,226.9C275.93,225.68 281.78,228.61 285.17,232.17C288.54,235.56 291.21,243.43 291.34,243.88C292.66,248.29 290.04,250.22 289.36,251.15C288.09,252.92 288.37,253.58 285.92,256.78C276.25,269.37 264.25,281.7 249.31,289.77C245.42,291.81 243.82,290.06 241.67,291.55C241.18,292.32 242.59,293.86 243.03,294.39C248.67,301.21 248.14,299.83 248.36,302.7C248.34,304.14 248.55,305.07 249.99,305.43C250.68,305.54 250.58,307.42 250.63,307.77C250.94,315.13 252.34,320 246.09,323.33C244.56,324.15 239.23,325.2 235.32,323.43C232.47,322.25 234.81,322.16 226.03,320.02C220.52,318.71 204.92,312.09 196.74,311.32C193.14,310.84 191.84,313.02 182.24,316.83C178.16,318.4 174.16,320.19 169.98,321.49C166.43,322.55 162.69,322.86 159.21,324.15C148.63,328.3 143.89,326.28 135.23,328.36C129.32,329.73 123.27,329.43 117.23,328.93C116.1,328.8 111.87,328.93 109.06,325.16C105.25,320.17 108.91,315.73 110.71,311.3C111.21,310.1 111.44,308.79 112.07,307.64C113.57,304.72 119.47,298.99 122,298.18C122.38,298.04 136.36,296.37 137.2,295.62C137.59,295.29 137.87,294.85 138.26,294.51C135.83,292.58 127.69,288.55 124.9,287.32C120.21,285.23 115.79,282.59 111.13,280.43C109.03,279.36 90.37,266.49 82.64,253.46C81.36,251.29 80.86,248.73 80.83,246.22C80.89,240.06 80.32,238.14 86.67,231.29C88.12,229.89 89.38,227.92 95.71,227.17C101.04,226.36 104.88,228.44 110.09,229.65C110.71,229.76 111.13,230.27 111.71,230.46C135.39,236.52 118.02,231.91 134.16,237.9C142.57,240.94 144.81,241.57 145.37,239.97C147.91,234.24 147.32,234.84 150.37,216.91C151.46,209.79 155.48,207.27 145.18,175.82C144.65,174.25 143.54,173 142.61,171.66C141.02,172.01 140.89,172.77 140.77,173.02C139.05,176.97 137.98,181.25 135.52,184.84C131.93,190.08 127.48,194.64 123.61,199.66C116.06,209.66 113.43,207.21 107.02,212.43C105.45,213.72 102.43,214.3 100.41,214.52C93.79,215.03 93.93,213.79 88.01,208.68C38.44,164.88 48.75,166.21 33.38,166.04C28.85,165.45 23.9,166.89 21.09,164.43C20.11,163.52 20.22,163.99 12.93,163.97C10.5,163.98 8.89,165.32 4.97,159.95C6.11,159.48 7.23,158.99 8.37,158.51C7.04,152.56 0.01,149.74 3.06,141.88C7.68,148.2 9.05,152.17 14.39,154.2C15.84,154.7 16.57,153.89 16.55,152.68C16.38,149.7 15.89,148.17 19.3,141.68C21.96,136.84 20.48,136.97 21.48,134.2C21.99,132.68 23.43,133.04 24.21,133.07C30.26,132.6 25.14,135.02 38.1,144.95C55.44,158.59 42.91,156.22 94.89,185.58C101.58,189.94 101.3,184.8 108.71,169.93C111.51,164.43 116.84,160.55 118.95,154.84C119.32,153.83 119.54,152.78 119.93,151.77C120.98,148.88 122.53,146.2 123.63,143.34C125.19,139.16 124.77,140.23 126.95,137.91C129.86,135.12 133.75,129.46 141.27,128.4C145.02,127.83 146.9,128.48 159.85,124.18C173.97,119.54 171.39,116.63 171.78,110.8C171.75,109.6 171.86,108.39 171.64,107.19C170.79,102.71 170.52,98.14 168.17,94.33C166.05,90.8 163.95,90.65 162.32,86.34C160.54,81.63 162.57,78.87 162.94,77.83C164.68,73.27 163.27,68.49 164.84,64.15C166.38,59.88 166.23,54.86 169.85,51.49C175.09,46.01 178.37,50.84 184.8,47.07M342.59,146.24C344.23,147.96 345.84,149.71 347.5,151.41C350.39,145.92 346.43,143.89 345.73,139.94C345.47,139.94 345.21,139.94 344.96,139.95C344.19,142.05 343.36,144.14 342.59,146.24M26.89,143.33C23.89,150.46 27.05,154.27 30.26,153.88C30.77,150.47 32.84,145.66 26.89,143.33ZM26.89,143.33" clip-path="url(#clip_path_1)"/></g></svg>