<svg id="vector" xmlns="http://www.w3.org/2000/svg" width="500" height="500" viewBox="0 0 375 375"><defs><clipPath id="clip_path_0"><path d="M183.29,198.59L187.51,198.59L187.51,202.2L183.29,202.2ZM183.29,198.59"/></clipPath><clipPath id="clip_path_1"><path d="M36.14,0L339.14,0L339.14,375L36.14,375ZM36.14,0"/></clipPath></defs><g id="g_0"><g clip-path="url(#clip_path_0)"><path fill="#1e1e1e" fill-rule="nonzero" d="M180.45,195.75L190.58,195.75L190.58,205.57L180.45,205.57ZM180.45,195.75"/></g></g><g id="g_1"><path fill="#000000" fill-rule="nonzero" d="M338.32,22.31C337.93,22.07 337.43,22.06 336.98,22.12C333.67,22.57 331.44,26.06 328.14,26.62C328.32,25.46 328.79,24.38 329.25,23.31C332.16,16.62 335.17,9.97 338.29,3.37C338.76,2.38 339.12,0.96 338.18,0.38C337.62,0.04 336.85,0.26 336.37,0.71C335.89,1.16 335.62,1.8 335.35,2.4C333.59,6.29 331.05,9.78 328.53,13.23C326.95,15.38 325.36,17.55 323.4,19.36C321.06,21.52 318.24,23.11 316,25.38C314.6,26.81 313.45,28.47 312.11,29.96C309.12,33.27 305.13,35.66 300.8,36.72C289.88,39.42 278.67,41.47 267.65,43.74C262.98,44.7 258.28,45.68 253.92,47.59C249.25,49.65 245.07,52.79 241.78,56.69C236.97,62.4 227.53,61 221.08,64.76C219.38,65.75 217.79,66.95 215.95,67.64C213.95,68.39 211.78,68.5 209.67,68.78C201.92,69.81 194.54,73.47 189.04,79.02C188.2,74.82 190.25,70.57 189.57,66.34C189.5,65.89 189.39,65.43 189.1,65.08C188.87,64.79 188.54,64.59 188.33,64.29C188.02,63.86 188,63.28 187.99,62.75C187.88,57.52 186.83,52.31 184.93,47.44C184.51,46.36 184.04,45.28 183.38,44.31C182.88,43.57 182.27,42.89 181.62,42.27C177.07,37.86 169.24,35.6 162.89,35.54C157.14,35.48 151.43,38.27 147.95,42.84C143.31,48.92 142.87,57.09 142.48,64.72C142.45,65.24 142.42,65.76 142.28,66.25C142.1,66.85 141.77,67.38 141.52,67.95C140.73,69.82 141.01,71.96 141.46,73.94C142.06,76.59 142.94,79.18 144.08,81.65C144.32,82.15 144.59,82.69 145.09,82.93C145.46,83.11 145.89,83.1 146.29,83.23C147.27,83.55 147.77,84.67 147.82,85.7C147.88,86.73 147.62,87.75 147.63,88.78C147.66,90.77 148.69,92.57 149.53,94.37C150.38,96.16 151.07,98.23 150.4,100.1C149.68,102.14 147.47,103.51 147.12,105.65C145.54,107.01 143.61,108.34 142.03,109.71C141.02,110.59 140,111.46 139.09,112.43C138.23,113.34 137.45,114.33 136.68,115.31L129.78,124.11C127.72,126.73 124.91,131.36 123.54,134.39C123.52,134.43 123.5,134.47 123.48,134.51C120.39,141.34 118.86,148.75 118.92,156.24C118.98,163.19 118.5,170.14 117.5,177.02C116.81,181.74 117.41,187.16 114.89,191.21C113.97,192.67 112.68,193.84 111.43,195.02C104.52,201.53 98.48,208.95 93.5,217.02C89.27,223.86 82.46,229.25 78.83,236.43C77.83,238.39 76.96,240.44 75.66,242.21C74.87,243.3 73.91,244.27 73.26,245.45C72.42,246.98 72.15,248.75 71.84,250.47C71.09,254.7 70.05,258.88 68.73,262.97C66.43,270.11 63.3,277.12 62.33,284.55C62.03,286.85 61.9,289.17 61.77,291.48C60.97,306.3 60.17,321.11 59.37,335.92C59.75,336.23 59.21,336.81 58.84,337.14C58.47,337.47 57.98,337.61 57.57,337.89C56.45,338.65 56.22,340.2 55.36,341.24C54.18,342.68 52,342.94 50.77,344.33C49.76,345.48 49.62,347.13 49.29,348.63C48.03,354.23 43.63,358.48 39.48,362.45C38.29,363.59 37.04,364.82 36.64,366.41C36.13,368.46 37.12,370.57 37.19,372.68C37.2,373.04 37.2,373.42 37.39,373.73C37.44,373.79 37.49,373.85 37.55,373.91C38.43,374.7 39.67,374.98 40.86,374.96L57.03,374.71C58.41,374.69 59.82,374.66 61.12,374.21C63.25,373.48 64.86,371.71 66.86,370.68C69.27,369.45 72.1,369.36 74.71,368.62C77.32,367.88 80.02,366.05 80.25,363.35C80.39,361.61 79.48,359.99 78.75,358.41C76.75,354.13 75.87,349.32 76.23,344.61C76.29,343.81 76.37,342.96 75.98,342.26C75.68,341.73 75.16,341.37 74.82,340.88C74.26,340.04 74.28,338.96 74.38,337.96C75.51,325.85 83.41,315.58 87.89,304.27C92.16,293.49 91,281.13 93.19,269.74C93.47,268.29 93.79,266.82 94.49,265.52C94.57,265.62 94.53,265.55 94.49,265.42C94.45,265.29 94.56,265.17 94.66,265.08C99.36,261 104.05,256.92 108.74,252.84C109.94,251.79 111.23,250.71 112.8,250.43C115.66,249.91 118.11,252.17 120.73,253.55C122.05,254.25 123.35,256.06 123.62,257.54C125.41,267.36 126.85,277.26 127.93,287.2C128.09,288.65 128.24,290.13 128.08,291.58C127.68,295.28 125.32,298.84 126.18,302.45C120.06,302.68 114.04,307.19 112.49,313.11C111.96,315.15 111.88,317.28 111.95,319.39C112.02,321.17 112.19,322.98 112.83,324.64C113.37,326.06 114.24,327.33 115.14,328.55C117.46,331.7 120.08,334.63 122.95,337.3C121.48,341.11 120.89,345.87 122.2,349.74C123.07,352.31 124.45,354.7 126.15,356.82C127.66,358.71 129.94,359.83 132.36,359.83L146.12,359.83C148.42,359.83 150.63,358.84 152.11,357.09C153.2,355.79 154.16,354.42 154.89,352.83C157.31,347.64 156.64,341.14 153.2,336.54C156.32,332.87 159.71,328.67 161.58,324.23C163.45,319.78 163.91,314.5 161.69,310.23C160.68,308.29 159.18,306.65 157.7,305.04C157.57,303.74 157.17,302.61 157.03,301.32C156.88,299.91 156.73,298.47 156.18,297.17C154.94,294.2 151.93,292.41 149.08,290.93C147.41,290.06 145.58,287.88 144.91,286.12C144.5,285.01 143.77,283.86 143.69,282.77C143.29,277.76 142.88,272.75 142.48,267.74C142.35,266.07 142.21,264.39 142.27,262.7C142.35,260.05 142.89,257.43 143.25,254.8C144.04,249.05 143.97,243.17 143.03,237.44C142.93,236.84 142.82,236.22 142.99,235.64C143.15,235.07 143.55,234.6 143.94,234.15L149.03,228.33C150.22,226.96 152.67,225.86 154.48,225.84C162.02,225.76 169.79,229.12 176.94,226.7C178.71,226.1 180.4,225.15 182.26,224.98C184.12,224.81 186.3,225.77 186.63,227.61C190.72,229.92 193.55,233.6 196.48,237.27C198.87,240.26 201.25,243.26 203.64,246.25C205,247.95 206.67,249.81 208.84,249.76C210.11,249.73 211.25,249.04 212.3,248.33C215.19,246.37 217.88,244.1 220.29,241.56C225.33,244.43 230.4,247.09 235.44,249.95C236.99,250.82 238.55,251.72 239.84,252.95C242.32,255.33 243.53,258.78 243.92,262.19C244.31,265.6 243.97,269.05 243.8,272.48C243.59,276.7 243.65,280.93 243.97,285.14C244.25,288.88 244.75,292.64 245.98,296.19C246.87,298.72 248.11,301.12 249.23,303.56C253.88,313.64 256.48,324.66 256.83,335.76C256.99,340.6 254.52,345.25 254.23,350.08C254.13,351.81 254.42,353.55 254.16,355.26C253.77,357.77 252.19,360.04 252.2,362.58C252.2,363.53 252.48,364.55 253.23,365.12C253.71,365.48 254.32,365.61 254.91,365.74C257.75,366.36 260.74,367.17 262.65,369.35C263.17,369.94 263.59,370.62 264.17,371.15C265.5,372.38 267.45,372.66 269.26,372.83C275.1,373.37 281,373.35 286.84,372.8C288.73,372.63 291.01,372.09 291.56,370.27C291.73,369.72 291.7,369.13 291.66,368.55C291.43,364.85 290.95,360.94 288.61,358.06C286.99,356.06 284.63,354.78 282.91,352.87C280.74,350.46 279.74,347.25 278.82,344.15C278.41,342.75 277.98,341.31 277.07,340.17C276.61,339.6 276.05,339.12 275.59,338.55C274.52,337.2 274.12,335.38 272.89,334.23C272.59,333.39 272.35,332.68 272.05,331.84C272.43,328.72 272.36,325.4 272.39,322.25C272.42,319.2 272.29,316.15 272.26,313.1C272.18,306.25 272.6,299.4 273.02,292.56C273.78,279.98 271.92,267.39 267.72,255.5C265.91,250.36 264.81,245.03 264.9,239.51C264.94,237.42 264.62,235.33 263.76,233.43C259.7,224.41 251.72,218.18 246.95,209.52C243.77,203.74 236.86,200.77 232.95,195.46C231.87,194 230.9,192.46 229.76,191.05C226.04,186.46 220.42,183.12 218.59,177.5C218.34,176.71 218.16,175.89 217.77,175.16C216.43,172.71 213.19,172.18 210.4,171.94C210.27,171.51 209.49,171.54 209.05,171.44C208.46,171.32 208.34,170.54 208.36,169.93C208.54,164.45 208.82,158.97 209.22,153.5C209.55,148.99 209.95,144.48 209.97,139.95C210,135.25 209.61,130.55 209.22,125.86C208.35,115.34 212.43,105.67 213.36,95.16C214.72,94.01 216.56,94.18 218.28,93.73C224.82,92.02 229.93,87.1 235.5,83.28C241.74,79 248.75,76.02 255.71,73.06C269.84,67.07 283.42,59.62 296.32,51.32C297.74,50.41 299.16,49.51 300.64,48.7C302.37,47.76 304.16,46.95 305.95,46.13C309.04,44.73 312.14,43.32 315.23,41.92C316.94,41.14 318.64,41.01 320.43,40.46C325.46,38.91 328.17,33.5 332.54,30.57C333.88,29.67 335.38,29 336.66,28.02C337.95,27.03 339.04,25.61 339.06,23.99C339.07,23.35 338.86,22.65 338.32,22.31ZM142.79,315.29C143,315.13 143.16,314.91 143.37,314.76C143.96,314.36 144.77,314.55 145.39,314.89C146.01,315.23 146.58,315.71 147.27,315.88C148.34,316.13 149.46,315.54 150.16,314.7C150.86,313.86 151.22,312.8 151.57,311.77C152.76,312.27 153.64,313.35 154.1,314.55C154.57,315.76 154.66,317.07 154.64,318.36C154.62,319.57 154.49,320.8 154.1,321.95C153.46,323.84 152.15,325.43 150.87,326.96C150.14,327.83 149.41,328.7 148.69,329.57C145.87,326.73 141.73,325.33 137.73,325.62C133.74,325.91 129.94,327.84 127.14,330.7C125.35,328.45 123.56,326.19 121.77,323.94C121.01,322.98 120.23,322 119.77,320.87C118.87,318.67 119.27,316.04 120.6,314.07C121.67,312.51 123.7,310.84 125.64,310.54C126.84,310.36 126.8,310.87 127.45,311.84C128.05,312.75 128.79,313.57 129.62,314.27C130.37,314.91 131.57,315.43 132.24,314.71C132.41,314.53 132.52,314.29 132.71,314.13C133.19,313.73 133.91,313.98 134.45,314.28C135.45,314.82 136.67,315.46 137.63,314.86C137.89,314.7 138.09,314.46 138.38,314.35C139.07,314.08 139.76,314.7 140.38,315.11C141.09,315.59 142.11,315.81 142.79,315.29ZM142.79,315.29" clip-path="url(#clip_path_1)"/></g></svg>