<svg xmlns="http://www.w3.org/2000/svg" width="47" height="48" viewBox="0 0 47 48">
    <!-- Background Circle -->
    <circle cx="23.191" cy="23.957" r="23.191" fill="#F5F5FF"/>

    <!-- Main Shape -->
    <path d="M28.325,12.331C29.993,12.227 31.638,12.806 32.877,13.941C34.012,15.181 34.592,16.825 34.499,18.505V29.324C34.603,31.004 34.012,32.649 32.889,33.888C31.649,35.024 29.993,35.603 28.325,35.499H17.505C15.826,35.603 14.181,35.024 12.941,33.888C11.806,32.649 11.227,31.004 11.331,29.324V18.505C11.227,16.825 11.806,15.181 12.941,13.941C14.181,12.806 15.826,12.227 17.505,12.331H28.325ZM21.733,29.533L29.529,21.714C30.236,20.996 30.236,19.837 29.529,19.131L28.024,17.625C27.305,16.906 26.147,16.906 25.429,17.625L24.653,18.412C24.537,18.528 24.537,18.725 24.653,18.841C24.653,18.841 26.494,20.671 26.529,20.718C26.657,20.857 26.738,21.042 26.738,21.25C26.738,21.667 26.402,22.015 25.973,22.015C25.776,22.015 25.591,21.934 25.463,21.806L23.529,19.883C23.436,19.791 23.274,19.791 23.181,19.883L17.656,25.409C17.274,25.791 17.053,26.301 17.042,26.845L16.972,29.591C16.972,29.741 17.019,29.88 17.123,29.985C17.227,30.089 17.366,30.147 17.517,30.147H20.239C20.795,30.147 21.328,29.927 21.733,29.533Z" fill="#B23AFB"/>
</svg>
