<svg xmlns="http://www.w3.org/2000/svg"  width="47" height="47" viewBox="0 0 47 47">
<circle cx="23.191" cy="23.191" r="23.191" fill="#F5F5FF"/>
<path d="M28.797,11.331C30.465,11.227 32.11,11.806 33.349,12.941C34.484,14.181 35.064,15.826 34.971,17.505V28.325C35.075,30.004 34.484,31.649 33.361,32.889C32.121,34.024 30.465,34.603 28.797,34.499H17.977C16.298,34.603 14.653,34.024 13.413,32.889C12.278,31.649 11.699,30.004 11.803,28.325V17.505C11.699,15.826 12.278,14.181 13.413,12.941C14.653,11.806 16.298,11.227 17.977,11.331H28.797ZM22.205,28.533L30.001,20.714C30.708,19.996 30.708,18.837 30.001,18.131L28.496,16.625C27.777,15.907 26.619,15.907 25.901,16.625L25.125,17.413C25.009,17.528 25.009,17.725 25.125,17.841C25.125,17.841 26.966,19.671 27.001,19.718C27.129,19.857 27.21,20.042 27.21,20.251C27.21,20.668 26.874,21.015 26.445,21.015C26.248,21.015 26.063,20.934 25.935,20.807L24.001,18.884C23.908,18.791 23.746,18.791 23.653,18.884L18.128,24.409C17.746,24.792 17.525,25.301 17.514,25.846L17.444,28.591C17.444,28.742 17.491,28.881 17.595,28.985C17.699,29.089 17.838,29.147 17.989,29.147H20.711C21.267,29.147 21.8,28.927 22.205,28.533Z" fill="#09E3D1"/>
<circle cx="23.472" cy="23" r="9.528" fill="#09E3D1"/>
<rect x="16" y="16" width="13" height="13" fill="none" stroke="#ffffff" stroke-width="1.2"/>
<path d="M19.25,18.167H18.708C18.421,18.167 18.146,18.281 17.942,18.484C17.739,18.687 17.625,18.963 17.625,19.25V21.146C17.625,21.936 17.939,22.694 18.498,23.253C19.056,23.811 19.814,24.125 20.604,24.125C21.394,24.125 22.152,23.811 22.711,23.253C23.27,22.694 23.583,21.936 23.583,21.146V19.25C23.583,18.963 23.469,18.687 23.266,18.484C23.063,18.281 22.787,18.167 22.5,18.167H21.958" stroke="#ffffff" stroke-width="1.2" fill="none"/>
<path d="M20.333,24.125C20.333,24.552 20.417,24.974 20.581,25.369C20.744,25.763 20.983,26.121 21.285,26.423C21.587,26.725 21.945,26.964 22.34,27.128C22.734,27.291 23.156,27.375 23.583,27.375C24.01,27.375 24.433,27.291 24.827,27.128C25.221,26.964 25.58,26.725 25.881,26.423C26.183,26.121 26.423,25.763 26.586,25.369C26.749,24.974 26.833,24.552 26.833,24.125V22.5" stroke="#ffffff" stroke-width="1.2" fill="none"/>
<path d="M21.958,17.625V18.708" stroke="#ffffff" stroke-width="1.2" fill="none"/>
<path d="M19.25,17.625V18.708" stroke="#ffffff" stroke-width="1.2" fill="none"/>
<circle cx="26.833" cy="21.417" r="0.917" stroke="#ffffff" stroke-width="1.2" fill="none"/>
</svg>

