<?xml version="1.0" encoding="UTF-8"?>
<svg version="1.1" xmlns="http://www.w3.org/2000/svg" width="93" height="93">
<path d="M0 0 C0.84691406 0.4125 1.69382812 0.825 2.56640625 1.25 C12.60723966 6.64598986 20.03014498 15.3180608 24 26 C27.572994 38.24665787 27.58768542 51.34322857 22 63 C20.20300325 66.18043808 18.20862696 69.09391189 16 72 C15.278125 73.03125 14.55625 74.0625 13.8125 75.125 C6.5207324 83.48498833 -5.21102202 88.57838467 -16.1171875 89.37890625 C-30.72386957 89.99544335 -43.35668074 85.93533407 -54.2890625 75.8984375 C-64.7507105 64.80987426 -67.62983924 52.55802934 -67.30859375 37.7421875 C-66.70711795 25.13864903 -60.7181675 15.22355497 -51.6875 6.6875 C-37.71230031 -5.09737879 -16.49309785 -8.55395675 0 0 Z " fill="#F3F4FE" transform="translate(67,4)"/>
<path d="M0 0 C0.80179688 0.00451172 1.60359375 0.00902344 2.4296875 0.01367188 C4.41149006 0.02546832 6.39325433 0.04340395 8.375 0.0625 C8.42398438 0.73796875 8.47296875 1.4134375 8.5234375 2.109375 C8.59820312 3.00140625 8.67296875 3.8934375 8.75 4.8125 C8.81960937 5.69421875 8.88921875 6.5759375 8.9609375 7.484375 C9.37883252 10.08636288 9.98145133 11.83683233 11.375 14.0625 C13.94393838 15.34696919 16.14076337 15.39227144 19 15.625 C20.00289062 15.70878906 21.00578125 15.79257812 22.0390625 15.87890625 C23.19535156 15.96978516 23.19535156 15.96978516 24.375 16.0625 C24.52092789 19.77041544 24.60927895 23.47758726 24.6875 27.1875 C24.72939453 28.23421875 24.77128906 29.2809375 24.81445312 30.359375 C24.95262368 39.09175428 24.95262368 39.09175428 22.04296875 42.7421875 C16.87015411 47.24094577 11.02503299 46.28183004 4.5 46.3125 C2.86611328 46.3434375 2.86611328 46.3434375 1.19921875 46.375 C0.14605469 46.38015625 -0.90710938 46.3853125 -1.9921875 46.390625 C-2.95237793 46.3999707 -3.91256836 46.40931641 -4.90185547 46.41894531 C-8.18411312 45.98931503 -9.99793389 45.06144053 -12.625 43.0625 C-15.19810495 39.6299099 -14.94753588 35.75663625 -14.9609375 31.62890625 C-14.9675943 30.91395493 -14.9742511 30.1990036 -14.98110962 29.46238708 C-14.9912117 27.95371057 -14.9959274 26.4449896 -14.99560547 24.9362793 C-14.99997946 22.6358033 -15.03632198 20.3372463 -15.07421875 18.03710938 C-15.08008747 16.56771486 -15.0840565 15.09831128 -15.0859375 13.62890625 C-15.10030853 12.94542618 -15.11467957 12.26194611 -15.12948608 11.55775452 C-15.08421438 6.79463089 -13.98231161 4.40925402 -10.625 1.0625 C-7.31505287 -0.59247356 -3.63377 -0.03834335 0 0 Z " fill="#3B87FB" transform="translate(42.625,22.9375)"/>
<path d="M0 0 C1.32 0.33 2.64 0.66 4 1 C4 2.32 4 3.64 4 5 C5.65 5.33 7.3 5.66 9 6 C8.67 6.99 8.34 7.98 8 9 C6.68 9 5.36 9 4 9 C4 10.65 4 12.3 4 14 C2.68 14 1.36 14 0 14 C0 12.35 0 10.7 0 9 C-1.65 9 -3.3 9 -5 9 C-5 7.68 -5 6.36 -5 5 C-3.35 5 -1.7 5 0 5 C0 3.35 0 1.7 0 0 Z " fill="#E0E8FE" transform="translate(45,41)"/>
<path d="M0 0 C3.13010458 1.39192704 5.32336692 3.02642226 7.75 5.4375 C8.67039062 6.33275391 8.67039062 6.33275391 9.609375 7.24609375 C11 9 11 9 11 12 C9.741875 12.04125 8.48375 12.0825 7.1875 12.125 C6.47980469 12.14820313 5.77210937 12.17140625 5.04296875 12.1953125 C3 12 3 12 0 10 C-0.29296875 7.6171875 -0.29296875 7.6171875 -0.1875 4.875 C-0.16042969 3.96492188 -0.13335937 3.05484375 -0.10546875 2.1171875 C-0.07066406 1.41851563 -0.03585938 0.71984375 0 0 Z " fill="#4D92FB" transform="translate(55,24)"/>
</svg>
